<?xml version="1.0" encoding="UTF-8" standalone="no"?>
<!DOCTYPE svg PUBLIC "-//W3C//DTD SVG 1.0//EN"
 "http://www.w3.org/TR/2001/REC-SVG-20010904/DTD/svg10.dtd" [
 <!ATTLIST svg xmlns:xlink CDATA #FIXED "http://www.w3.org/1999/xlink">
]>
<!-- Generated by Graphviz version 2.20.2 (Tue Mar &#160;2 21:46:26 UTC 2010)
     For user: (jits) Jits,,, -->
<!-- Title: controllers_diagram Pages: 1 -->
<svg width="908pt" height="733pt"
 viewBox="0.00 0.00 908.00 733.00" xmlns="http://www.w3.org/2000/svg" xmlns:xlink="http://www.w3.org/1999/xlink">
<g id="graph0" class="graph" transform="scale(1 1) rotate(0) translate(4 729)">
<title>controllers_diagram</title>
<polygon style="fill:white;stroke:white;" points="-4,4 -4,-729 904,-729 904,4 -4,4"/>
<!-- _diagram_info -->
<g id="node1" class="node"><title>_diagram_info</title>
<text text-anchor="start" x="658.5" y="-702.8" style="font-family:Times New Roman;font-size:13.00;">Controllers diagram</text>
<text text-anchor="start" x="658.5" y="-685.8" style="font-family:Times New Roman;font-size:13.00;">Date: Apr 01 2011 &#45; 13:29</text>
<text text-anchor="start" x="658.5" y="-668.8" style="font-family:Times New Roman;font-size:13.00;">Migration version: 20110401105537</text>
<text text-anchor="start" x="658.5" y="-651.8" style="font-family:Times New Roman;font-size:13.00;">Generated by RailRoady 1.0.2</text>
<text text-anchor="start" x="658.5" y="-634.8" style="font-family:Times New Roman;font-size:13.00;">http://railroady.prestonlee.com</text>
</g>
<!-- DropboxAccountsController -->
<g id="node2" class="node"><title>DropboxAccountsController</title>
<polyline style="fill:none;stroke:black;" points="488,-400 701,-400 "/>
<path style="fill:none;stroke:black;" d="M701,-400C707,-400 713,-406 713,-412"/>
<polyline style="fill:none;stroke:black;" points="713,-412 713,-589 "/>
<path style="fill:none;stroke:black;" d="M713,-589C713,-595 707,-601 701,-601"/>
<polyline style="fill:none;stroke:black;" points="701,-601 488,-601 "/>
<path style="fill:none;stroke:black;" d="M488,-601C482,-601 476,-595 476,-589"/>
<polyline style="fill:none;stroke:black;" points="476,-589 476,-412 "/>
<path style="fill:none;stroke:black;" d="M476,-412C476,-406 482,-400 488,-400"/>
<text text-anchor="middle" x="594" y="-583.9" style="font-family:Times New Roman;font-size:14.00;">DropboxAccountsController</text>
<polyline style="fill:none;stroke:black;" points="476,-576 713,-576 "/>
<text text-anchor="start" x="483.5" y="-559.4" style="font-family:Times New Roman;font-size:14.00;">_callback_before_84</text>
<text text-anchor="start" x="483.5" y="-542.4" style="font-family:Times New Roman;font-size:14.00;">_one_time_conditions_valid_81?</text>
<text text-anchor="start" x="483.5" y="-525.4" style="font-family:Times New Roman;font-size:14.00;">_one_time_conditions_valid_85?</text>
<text text-anchor="start" x="483.5" y="-508.4" style="font-family:Times New Roman;font-size:14.00;">connect</text>
<text text-anchor="start" x="483.5" y="-491.4" style="font-family:Times New Roman;font-size:14.00;">set_ro_folder</text>
<text text-anchor="start" x="483.5" y="-474.4" style="font-family:Times New Roman;font-size:14.00;">specify_ro_folder</text>
<polyline style="fill:none;stroke:black;" points="476,-466 713,-466 "/>
<polyline style="fill:none;stroke:black;" points="476,-442 713,-442 "/>
<text text-anchor="start" x="483.5" y="-425.4" style="font-family:Times New Roman;font-size:14.00;">_layout</text>
<text text-anchor="start" x="483.5" y="-408.4" style="font-family:Times New Roman;font-size:14.00;">_run_process_action_callbacks</text>
</g>
<!-- ApplicationController -->
<g id="node3" class="node"><title>ApplicationController</title>
<polyline style="fill:none;stroke:black;" points="213,-75 444,-75 "/>
<path style="fill:none;stroke:black;" d="M444,-75C450,-75 456,-81 456,-87"/>
<polyline style="fill:none;stroke:black;" points="456,-87 456,-486 "/>
<path style="fill:none;stroke:black;" d="M456,-486C456,-492 450,-498 444,-498"/>
<polyline style="fill:none;stroke:black;" points="444,-498 213,-498 "/>
<path style="fill:none;stroke:black;" d="M213,-498C207,-498 201,-492 201,-486"/>
<polyline style="fill:none;stroke:black;" points="201,-486 201,-87 "/>
<path style="fill:none;stroke:black;" d="M201,-87C201,-81 207,-75 213,-75"/>
<text text-anchor="middle" x="328" y="-480.9" style="font-family:Times New Roman;font-size:14.00;">ApplicationController</text>
<polyline style="fill:none;stroke:black;" points="201,-473 456,-473 "/>
<text text-anchor="start" x="208.5" y="-455.9" style="font-family:Times New Roman;font-size:14.00;">_one_time_conditions_valid_67?</text>
<text text-anchor="start" x="208.5" y="-438.9" style="font-family:Times New Roman;font-size:14.00;">_one_time_conditions_valid_69?</text>
<text text-anchor="start" x="208.5" y="-421.9" style="font-family:Times New Roman;font-size:14.00;">_one_time_conditions_valid_71?</text>
<text text-anchor="start" x="208.5" y="-404.9" style="font-family:Times New Roman;font-size:14.00;">_one_time_conditions_valid_73?</text>
<text text-anchor="start" x="208.5" y="-387.9" style="font-family:Times New Roman;font-size:14.00;">_one_time_conditions_valid_75?</text>
<text text-anchor="start" x="208.5" y="-370.9" style="font-family:Times New Roman;font-size:14.00;">_one_time_conditions_valid_77?</text>
<text text-anchor="start" x="208.5" y="-353.9" style="font-family:Times New Roman;font-size:14.00;">_one_time_conditions_valid_79?</text>
<polyline style="fill:none;stroke:black;" points="201,-346 456,-346 "/>
<text text-anchor="start" x="208.5" y="-328.9" style="font-family:Times New Roman;font-size:14.00;">delayed_job_admin_authentication</text>
<text text-anchor="start" x="208.5" y="-311.9" style="font-family:Times New Roman;font-size:14.00;">error</text>
<text text-anchor="start" x="208.5" y="-294.9" style="font-family:Times New Roman;font-size:14.00;">error_to_back_or_home</text>
<text text-anchor="start" x="208.5" y="-277.9" style="font-family:Times New Roman;font-size:14.00;">get_selected_site_tab</text>
<text text-anchor="start" x="208.5" y="-260.9" style="font-family:Times New Roman;font-size:14.00;">is_api_request?</text>
<text text-anchor="start" x="208.5" y="-243.9" style="font-family:Times New Roman;font-size:14.00;">is_non_html_request?</text>
<text text-anchor="start" x="208.5" y="-226.9" style="font-family:Times New Roman;font-size:14.00;">set_limit</text>
<text text-anchor="start" x="208.5" y="-209.9" style="font-family:Times New Roman;font-size:14.00;">set_page</text>
<text text-anchor="start" x="208.5" y="-192.9" style="font-family:Times New Roman;font-size:14.00;">set_per_page</text>
<text text-anchor="start" x="208.5" y="-175.9" style="font-family:Times New Roman;font-size:14.00;">set_previous_url</text>
<text text-anchor="start" x="208.5" y="-158.9" style="font-family:Times New Roman;font-size:14.00;">stored_location_for</text>
<polyline style="fill:none;stroke:black;" points="201,-151 456,-151 "/>
<text text-anchor="start" x="208.5" y="-134.4" style="font-family:Times New Roman;font-size:14.00;">_layout</text>
<text text-anchor="start" x="208.5" y="-117.4" style="font-family:Times New Roman;font-size:14.00;">_run_process_action_callbacks</text>
<text text-anchor="start" x="208.5" y="-100.4" style="font-family:Times New Roman;font-size:14.00;">build_site_tab_info</text>
<text text-anchor="start" x="208.5" y="-83.4" style="font-family:Times New Roman;font-size:14.00;">build_site_tabs</text>
</g>
<!-- Admin::BaseController -->
<g id="node4" class="node"><title>Admin::BaseController</title>
<polyline style="fill:none;stroke:black;" points="238,-526 451,-526 "/>
<path style="fill:none;stroke:black;" d="M451,-526C457,-526 463,-532 463,-538"/>
<polyline style="fill:none;stroke:black;" points="463,-538 463,-664 "/>
<path style="fill:none;stroke:black;" d="M463,-664C463,-670 457,-676 451,-676"/>
<polyline style="fill:none;stroke:black;" points="451,-676 238,-676 "/>
<path style="fill:none;stroke:black;" d="M238,-676C232,-676 226,-670 226,-664"/>
<polyline style="fill:none;stroke:black;" points="226,-664 226,-538 "/>
<path style="fill:none;stroke:black;" d="M226,-538C226,-532 232,-526 238,-526"/>
<text text-anchor="middle" x="344" y="-658.9" style="font-family:Times New Roman;font-size:14.00;">Admin::BaseController</text>
<polyline style="fill:none;stroke:black;" points="226,-651 463,-651 "/>
<text text-anchor="start" x="233.5" y="-634.4" style="font-family:Times New Roman;font-size:14.00;">_one_time_conditions_valid_89?</text>
<text text-anchor="start" x="233.5" y="-617.4" style="font-family:Times New Roman;font-size:14.00;">_one_time_conditions_valid_91?</text>
<polyline style="fill:none;stroke:black;" points="226,-609 463,-609 "/>
<polyline style="fill:none;stroke:black;" points="226,-585 463,-585 "/>
<text text-anchor="start" x="233.5" y="-567.9" style="font-family:Times New Roman;font-size:14.00;">_layout</text>
<text text-anchor="start" x="233.5" y="-550.9" style="font-family:Times New Roman;font-size:14.00;">_run_process_action_callbacks</text>
<text text-anchor="start" x="233.5" y="-533.9" style="font-family:Times New Roman;font-size:14.00;">verify_admin</text>
</g>
<!-- Admin::UsersController -->
<g id="node5" class="node"><title>Admin::UsersController</title>
<polyline style="fill:none;stroke:black;" points="488,-150 701,-150 "/>
<path style="fill:none;stroke:black;" d="M701,-150C707,-150 713,-156 713,-162"/>
<polyline style="fill:none;stroke:black;" points="713,-162 713,-373 "/>
<path style="fill:none;stroke:black;" d="M713,-373C713,-379 707,-385 701,-385"/>
<polyline style="fill:none;stroke:black;" points="701,-385 488,-385 "/>
<path style="fill:none;stroke:black;" d="M488,-385C482,-385 476,-379 476,-373"/>
<polyline style="fill:none;stroke:black;" points="476,-373 476,-162 "/>
<path style="fill:none;stroke:black;" d="M476,-162C476,-156 482,-150 488,-150"/>
<text text-anchor="middle" x="594" y="-367.9" style="font-family:Times New Roman;font-size:14.00;">Admin::UsersController</text>
<polyline style="fill:none;stroke:black;" points="476,-360 713,-360 "/>
<text text-anchor="start" x="483.5" y="-343.4" style="font-family:Times New Roman;font-size:14.00;">_one_time_conditions_valid_93?</text>
<text text-anchor="start" x="483.5" y="-326.4" style="font-family:Times New Roman;font-size:14.00;">create</text>
<text text-anchor="start" x="483.5" y="-309.4" style="font-family:Times New Roman;font-size:14.00;">destroy</text>
<text text-anchor="start" x="483.5" y="-292.4" style="font-family:Times New Roman;font-size:14.00;">edit</text>
<text text-anchor="start" x="483.5" y="-275.4" style="font-family:Times New Roman;font-size:14.00;">find_user</text>
<text text-anchor="start" x="483.5" y="-258.4" style="font-family:Times New Roman;font-size:14.00;">index</text>
<text text-anchor="start" x="483.5" y="-241.4" style="font-family:Times New Roman;font-size:14.00;">new</text>
<text text-anchor="start" x="483.5" y="-224.4" style="font-family:Times New Roman;font-size:14.00;">update</text>
<polyline style="fill:none;stroke:black;" points="476,-216 713,-216 "/>
<polyline style="fill:none;stroke:black;" points="476,-192 713,-192 "/>
<text text-anchor="start" x="483.5" y="-175.4" style="font-family:Times New Roman;font-size:14.00;">_layout</text>
<text text-anchor="start" x="483.5" y="-158.4" style="font-family:Times New Roman;font-size:14.00;">_run_process_action_callbacks</text>
</g>
<!-- Admin::DashboardController -->
<g id="node6" class="node"><title>Admin::DashboardController</title>
<polyline style="fill:none;stroke:black;" points="13,-625 201,-625 "/>
<path style="fill:none;stroke:black;" d="M201,-625C207,-625 213,-631 213,-637"/>
<polyline style="fill:none;stroke:black;" points="213,-637 213,-712 "/>
<path style="fill:none;stroke:black;" d="M213,-712C213,-718 207,-724 201,-724"/>
<polyline style="fill:none;stroke:black;" points="201,-724 13,-724 "/>
<path style="fill:none;stroke:black;" d="M13,-724C7,-724 1,-718 1,-712"/>
<polyline style="fill:none;stroke:black;" points="1,-712 1,-637 "/>
<path style="fill:none;stroke:black;" d="M1,-637C1,-631 7,-625 13,-625"/>
<text text-anchor="middle" x="107" y="-706.9" style="font-family:Times New Roman;font-size:14.00;">Admin::DashboardController</text>
<polyline style="fill:none;stroke:black;" points="1,-699 213,-699 "/>
<text text-anchor="start" x="9" y="-681.9" style="font-family:Times New Roman;font-size:14.00;">index</text>
<polyline style="fill:none;stroke:black;" points="1,-674 213,-674 "/>
<polyline style="fill:none;stroke:black;" points="1,-650 213,-650 "/>
<text text-anchor="start" x="9" y="-632.9" style="font-family:Times New Roman;font-size:14.00;">_layout</text>
</g>
<!-- HomeController -->
<g id="node7" class="node"><title>HomeController</title>
<polyline style="fill:none;stroke:black;" points="488,-1 701,-1 "/>
<path style="fill:none;stroke:black;" d="M701,-1C707,-1 713,-7 713,-13"/>
<polyline style="fill:none;stroke:black;" points="713,-13 713,-123 "/>
<path style="fill:none;stroke:black;" d="M713,-123C713,-129 707,-135 701,-135"/>
<polyline style="fill:none;stroke:black;" points="701,-135 488,-135 "/>
<path style="fill:none;stroke:black;" d="M488,-135C482,-135 476,-129 476,-123"/>
<polyline style="fill:none;stroke:black;" points="476,-123 476,-13 "/>
<path style="fill:none;stroke:black;" d="M476,-13C476,-7 482,-1 488,-1"/>
<text text-anchor="middle" x="594" y="-117.9" style="font-family:Times New Roman;font-size:14.00;">HomeController</text>
<polyline style="fill:none;stroke:black;" points="476,-110 713,-110 "/>
<text text-anchor="start" x="483.5" y="-93.4" style="font-family:Times New Roman;font-size:14.00;">_one_time_conditions_valid_97?</text>
<text text-anchor="start" x="483.5" y="-76.4" style="font-family:Times New Roman;font-size:14.00;">index</text>
<polyline style="fill:none;stroke:black;" points="476,-68 713,-68 "/>
<text text-anchor="start" x="483.5" y="-50.9" style="font-family:Times New Roman;font-size:14.00;">prepare_wizard_data</text>
<polyline style="fill:none;stroke:black;" points="476,-43 713,-43 "/>
<text text-anchor="start" x="483.5" y="-26.4" style="font-family:Times New Roman;font-size:14.00;">_layout</text>
<text text-anchor="start" x="483.5" y="-9.4" style="font-family:Times New Roman;font-size:14.00;">_run_process_action_callbacks</text>
</g>
</g>
</svg>
