<?xml version="1.0" encoding="UTF-8" standalone="no"?>
<!DOCTYPE svg PUBLIC "-//W3C//DTD SVG 1.0//EN"
 "http://www.w3.org/TR/2001/REC-SVG-20010904/DTD/svg10.dtd" [
 <!ATTLIST svg xmlns:xlink CDATA #FIXED "http://www.w3.org/1999/xlink">
]>
<!-- Generated by Graphviz version 2.20.2 (Tue Mar &#160;2 21:46:26 UTC 2010)
     For user: (jits) Jits,,, -->
<!-- Title: controllers_diagram Pages: 1 -->
<svg width="958pt" height="752pt"
 viewBox="0.00 0.00 958.00 752.00" xmlns="http://www.w3.org/2000/svg" xmlns:xlink="http://www.w3.org/1999/xlink">
<g id="graph0" class="graph" transform="scale(1 1) rotate(0) translate(4 748)">
<title>controllers_diagram</title>
<polygon style="fill:white;stroke:white;" points="-4,4 -4,-748 954,-748 954,4 -4,4"/>
<!-- _diagram_info -->
<g id="node1" class="node"><title>_diagram_info</title>
<text text-anchor="start" x="708.5" y="-727.8" style="font-family:Times New Roman;font-size:13.00;">Controllers diagram</text>
<text text-anchor="start" x="708.5" y="-710.8" style="font-family:Times New Roman;font-size:13.00;">Date: Apr 07 2011 &#45; 10:02</text>
<text text-anchor="start" x="708.5" y="-693.8" style="font-family:Times New Roman;font-size:13.00;">Migration version: 20110406150131</text>
<text text-anchor="start" x="708.5" y="-676.8" style="font-family:Times New Roman;font-size:13.00;">Generated by RailRoady 1.0.2</text>
<text text-anchor="start" x="708.5" y="-659.8" style="font-family:Times New Roman;font-size:13.00;">http://railroady.prestonlee.com</text>
</g>
<!-- DropboxResearchObjectContainerController -->
<g id="node2" class="node"><title>DropboxResearchObjectContainerController</title>
<polyline style="fill:none;stroke:black;" points="513,-151 807,-151 "/>
<path style="fill:none;stroke:black;" d="M807,-151C813,-151 819,-157 819,-163"/>
<polyline style="fill:none;stroke:black;" points="819,-163 819,-357 "/>
<path style="fill:none;stroke:black;" d="M819,-357C819,-363 813,-369 807,-369"/>
<polyline style="fill:none;stroke:black;" points="807,-369 513,-369 "/>
<path style="fill:none;stroke:black;" d="M513,-369C507,-369 501,-363 501,-357"/>
<polyline style="fill:none;stroke:black;" points="501,-357 501,-163 "/>
<path style="fill:none;stroke:black;" d="M501,-163C501,-157 507,-151 513,-151"/>
<text text-anchor="middle" x="660" y="-351.9" style="font-family:Times New Roman;font-size:14.00;">DropboxResearchObjectContainerController</text>
<polyline style="fill:none;stroke:black;" points="501,-344 819,-344 "/>
<text text-anchor="start" x="509" y="-326.9" style="font-family:Times New Roman;font-size:14.00;">_callback_before_86</text>
<text text-anchor="start" x="509" y="-309.9" style="font-family:Times New Roman;font-size:14.00;">_callback_before_88</text>
<text text-anchor="start" x="509" y="-292.9" style="font-family:Times New Roman;font-size:14.00;">_one_time_conditions_valid_85?</text>
<text text-anchor="start" x="509" y="-275.9" style="font-family:Times New Roman;font-size:14.00;">_one_time_conditions_valid_87?</text>
<text text-anchor="start" x="509" y="-258.9" style="font-family:Times New Roman;font-size:14.00;">_one_time_conditions_valid_89?</text>
<text text-anchor="start" x="509" y="-241.9" style="font-family:Times New Roman;font-size:14.00;">create</text>
<text text-anchor="start" x="509" y="-224.9" style="font-family:Times New Roman;font-size:14.00;">new</text>
<polyline style="fill:none;stroke:black;" points="501,-217 819,-217 "/>
<polyline style="fill:none;stroke:black;" points="501,-193 819,-193 "/>
<text text-anchor="start" x="509" y="-176.4" style="font-family:Times New Roman;font-size:14.00;">_layout</text>
<text text-anchor="start" x="509" y="-159.4" style="font-family:Times New Roman;font-size:14.00;">_run_process_action_callbacks</text>
</g>
<!-- DropboxAccountsController -->
<g id="node3" class="node"><title>DropboxAccountsController</title>
<polyline style="fill:none;stroke:black;" points="13,-500 194,-500 "/>
<path style="fill:none;stroke:black;" d="M194,-500C200,-500 206,-506 206,-512"/>
<polyline style="fill:none;stroke:black;" points="206,-512 206,-587 "/>
<path style="fill:none;stroke:black;" d="M206,-587C206,-593 200,-599 194,-599"/>
<polyline style="fill:none;stroke:black;" points="194,-599 13,-599 "/>
<path style="fill:none;stroke:black;" d="M13,-599C7,-599 1,-593 1,-587"/>
<polyline style="fill:none;stroke:black;" points="1,-587 1,-512 "/>
<path style="fill:none;stroke:black;" d="M1,-512C1,-506 7,-500 13,-500"/>
<text text-anchor="middle" x="103" y="-581.9" style="font-family:Times New Roman;font-size:14.00;">DropboxAccountsController</text>
<polyline style="fill:none;stroke:black;" points="1,-574 206,-574 "/>
<text text-anchor="start" x="8.5" y="-556.9" style="font-family:Times New Roman;font-size:14.00;">connect</text>
<polyline style="fill:none;stroke:black;" points="1,-549 206,-549 "/>
<polyline style="fill:none;stroke:black;" points="1,-525 206,-525 "/>
<text text-anchor="start" x="8.5" y="-507.9" style="font-family:Times New Roman;font-size:14.00;">_layout</text>
</g>
<!-- ApplicationController -->
<g id="node4" class="node"><title>ApplicationController</title>
<polyline style="fill:none;stroke:black;" points="238,-75 469,-75 "/>
<path style="fill:none;stroke:black;" d="M469,-75C475,-75 481,-81 481,-87"/>
<polyline style="fill:none;stroke:black;" points="481,-87 481,-486 "/>
<path style="fill:none;stroke:black;" d="M481,-486C481,-492 475,-498 469,-498"/>
<polyline style="fill:none;stroke:black;" points="469,-498 238,-498 "/>
<path style="fill:none;stroke:black;" d="M238,-498C232,-498 226,-492 226,-486"/>
<polyline style="fill:none;stroke:black;" points="226,-486 226,-87 "/>
<path style="fill:none;stroke:black;" d="M226,-87C226,-81 232,-75 238,-75"/>
<text text-anchor="middle" x="353" y="-480.9" style="font-family:Times New Roman;font-size:14.00;">ApplicationController</text>
<polyline style="fill:none;stroke:black;" points="226,-473 481,-473 "/>
<text text-anchor="start" x="233.5" y="-455.9" style="font-family:Times New Roman;font-size:14.00;">_one_time_conditions_valid_71?</text>
<text text-anchor="start" x="233.5" y="-438.9" style="font-family:Times New Roman;font-size:14.00;">_one_time_conditions_valid_73?</text>
<text text-anchor="start" x="233.5" y="-421.9" style="font-family:Times New Roman;font-size:14.00;">_one_time_conditions_valid_75?</text>
<text text-anchor="start" x="233.5" y="-404.9" style="font-family:Times New Roman;font-size:14.00;">_one_time_conditions_valid_77?</text>
<text text-anchor="start" x="233.5" y="-387.9" style="font-family:Times New Roman;font-size:14.00;">_one_time_conditions_valid_79?</text>
<text text-anchor="start" x="233.5" y="-370.9" style="font-family:Times New Roman;font-size:14.00;">_one_time_conditions_valid_81?</text>
<text text-anchor="start" x="233.5" y="-353.9" style="font-family:Times New Roman;font-size:14.00;">_one_time_conditions_valid_83?</text>
<polyline style="fill:none;stroke:black;" points="226,-346 481,-346 "/>
<text text-anchor="start" x="233.5" y="-328.9" style="font-family:Times New Roman;font-size:14.00;">delayed_job_admin_authentication</text>
<text text-anchor="start" x="233.5" y="-311.9" style="font-family:Times New Roman;font-size:14.00;">error</text>
<text text-anchor="start" x="233.5" y="-294.9" style="font-family:Times New Roman;font-size:14.00;">error_to_back_or_home</text>
<text text-anchor="start" x="233.5" y="-277.9" style="font-family:Times New Roman;font-size:14.00;">get_selected_site_tab</text>
<text text-anchor="start" x="233.5" y="-260.9" style="font-family:Times New Roman;font-size:14.00;">is_api_request?</text>
<text text-anchor="start" x="233.5" y="-243.9" style="font-family:Times New Roman;font-size:14.00;">is_non_html_request?</text>
<text text-anchor="start" x="233.5" y="-226.9" style="font-family:Times New Roman;font-size:14.00;">set_limit</text>
<text text-anchor="start" x="233.5" y="-209.9" style="font-family:Times New Roman;font-size:14.00;">set_page</text>
<text text-anchor="start" x="233.5" y="-192.9" style="font-family:Times New Roman;font-size:14.00;">set_per_page</text>
<text text-anchor="start" x="233.5" y="-175.9" style="font-family:Times New Roman;font-size:14.00;">set_previous_url</text>
<text text-anchor="start" x="233.5" y="-158.9" style="font-family:Times New Roman;font-size:14.00;">stored_location_for</text>
<polyline style="fill:none;stroke:black;" points="226,-151 481,-151 "/>
<text text-anchor="start" x="233.5" y="-134.4" style="font-family:Times New Roman;font-size:14.00;">_layout</text>
<text text-anchor="start" x="233.5" y="-117.4" style="font-family:Times New Roman;font-size:14.00;">_run_process_action_callbacks</text>
<text text-anchor="start" x="233.5" y="-100.4" style="font-family:Times New Roman;font-size:14.00;">build_site_tab_info</text>
<text text-anchor="start" x="233.5" y="-83.4" style="font-family:Times New Roman;font-size:14.00;">build_site_tabs</text>
</g>
<!-- Admin::BaseController -->
<g id="node5" class="node"><title>Admin::BaseController</title>
<polyline style="fill:none;stroke:black;" points="263,-526 476,-526 "/>
<path style="fill:none;stroke:black;" d="M476,-526C482,-526 488,-532 488,-538"/>
<polyline style="fill:none;stroke:black;" points="488,-538 488,-664 "/>
<path style="fill:none;stroke:black;" d="M488,-664C488,-670 482,-676 476,-676"/>
<polyline style="fill:none;stroke:black;" points="476,-676 263,-676 "/>
<path style="fill:none;stroke:black;" d="M263,-676C257,-676 251,-670 251,-664"/>
<polyline style="fill:none;stroke:black;" points="251,-664 251,-538 "/>
<path style="fill:none;stroke:black;" d="M251,-538C251,-532 257,-526 263,-526"/>
<text text-anchor="middle" x="369" y="-658.9" style="font-family:Times New Roman;font-size:14.00;">Admin::BaseController</text>
<polyline style="fill:none;stroke:black;" points="251,-651 488,-651 "/>
<text text-anchor="start" x="258.5" y="-634.4" style="font-family:Times New Roman;font-size:14.00;">_one_time_conditions_valid_91?</text>
<text text-anchor="start" x="258.5" y="-617.4" style="font-family:Times New Roman;font-size:14.00;">_one_time_conditions_valid_93?</text>
<polyline style="fill:none;stroke:black;" points="251,-609 488,-609 "/>
<polyline style="fill:none;stroke:black;" points="251,-585 488,-585 "/>
<text text-anchor="start" x="258.5" y="-567.9" style="font-family:Times New Roman;font-size:14.00;">_layout</text>
<text text-anchor="start" x="258.5" y="-550.9" style="font-family:Times New Roman;font-size:14.00;">_run_process_action_callbacks</text>
<text text-anchor="start" x="258.5" y="-533.9" style="font-family:Times New Roman;font-size:14.00;">verify_admin</text>
</g>
<!-- Admin::UsersController -->
<g id="node6" class="node"><title>Admin::UsersController</title>
<polyline style="fill:none;stroke:black;" points="513,-400 726,-400 "/>
<path style="fill:none;stroke:black;" d="M726,-400C732,-400 738,-406 738,-412"/>
<polyline style="fill:none;stroke:black;" points="738,-412 738,-623 "/>
<path style="fill:none;stroke:black;" d="M738,-623C738,-629 732,-635 726,-635"/>
<polyline style="fill:none;stroke:black;" points="726,-635 513,-635 "/>
<path style="fill:none;stroke:black;" d="M513,-635C507,-635 501,-629 501,-623"/>
<polyline style="fill:none;stroke:black;" points="501,-623 501,-412 "/>
<path style="fill:none;stroke:black;" d="M501,-412C501,-406 507,-400 513,-400"/>
<text text-anchor="middle" x="619" y="-617.9" style="font-family:Times New Roman;font-size:14.00;">Admin::UsersController</text>
<polyline style="fill:none;stroke:black;" points="501,-610 738,-610 "/>
<text text-anchor="start" x="508.5" y="-593.4" style="font-family:Times New Roman;font-size:14.00;">_one_time_conditions_valid_95?</text>
<text text-anchor="start" x="508.5" y="-576.4" style="font-family:Times New Roman;font-size:14.00;">create</text>
<text text-anchor="start" x="508.5" y="-559.4" style="font-family:Times New Roman;font-size:14.00;">destroy</text>
<text text-anchor="start" x="508.5" y="-542.4" style="font-family:Times New Roman;font-size:14.00;">edit</text>
<text text-anchor="start" x="508.5" y="-525.4" style="font-family:Times New Roman;font-size:14.00;">find_user</text>
<text text-anchor="start" x="508.5" y="-508.4" style="font-family:Times New Roman;font-size:14.00;">index</text>
<text text-anchor="start" x="508.5" y="-491.4" style="font-family:Times New Roman;font-size:14.00;">new</text>
<text text-anchor="start" x="508.5" y="-474.4" style="font-family:Times New Roman;font-size:14.00;">update</text>
<polyline style="fill:none;stroke:black;" points="501,-466 738,-466 "/>
<polyline style="fill:none;stroke:black;" points="501,-442 738,-442 "/>
<text text-anchor="start" x="508.5" y="-425.4" style="font-family:Times New Roman;font-size:14.00;">_layout</text>
<text text-anchor="start" x="508.5" y="-408.4" style="font-family:Times New Roman;font-size:14.00;">_run_process_action_callbacks</text>
</g>
<!-- Admin::DashboardController -->
<g id="node7" class="node"><title>Admin::DashboardController</title>
<polyline style="fill:none;stroke:black;" points="38,-625 226,-625 "/>
<path style="fill:none;stroke:black;" d="M226,-625C232,-625 238,-631 238,-637"/>
<polyline style="fill:none;stroke:black;" points="238,-637 238,-712 "/>
<path style="fill:none;stroke:black;" d="M238,-712C238,-718 232,-724 226,-724"/>
<polyline style="fill:none;stroke:black;" points="226,-724 38,-724 "/>
<path style="fill:none;stroke:black;" d="M38,-724C32,-724 26,-718 26,-712"/>
<polyline style="fill:none;stroke:black;" points="26,-712 26,-637 "/>
<path style="fill:none;stroke:black;" d="M26,-637C26,-631 32,-625 38,-625"/>
<text text-anchor="middle" x="132" y="-706.9" style="font-family:Times New Roman;font-size:14.00;">Admin::DashboardController</text>
<polyline style="fill:none;stroke:black;" points="26,-699 238,-699 "/>
<text text-anchor="start" x="34" y="-681.9" style="font-family:Times New Roman;font-size:14.00;">index</text>
<polyline style="fill:none;stroke:black;" points="26,-674 238,-674 "/>
<polyline style="fill:none;stroke:black;" points="26,-650 238,-650 "/>
<text text-anchor="start" x="34" y="-632.9" style="font-family:Times New Roman;font-size:14.00;">_layout</text>
</g>
<!-- HomeController -->
<g id="node8" class="node"><title>HomeController</title>
<polyline style="fill:none;stroke:black;" points="513,-1 726,-1 "/>
<path style="fill:none;stroke:black;" d="M726,-1C732,-1 738,-7 738,-13"/>
<polyline style="fill:none;stroke:black;" points="738,-13 738,-123 "/>
<path style="fill:none;stroke:black;" d="M738,-123C738,-129 732,-135 726,-135"/>
<polyline style="fill:none;stroke:black;" points="726,-135 513,-135 "/>
<path style="fill:none;stroke:black;" d="M513,-135C507,-135 501,-129 501,-123"/>
<polyline style="fill:none;stroke:black;" points="501,-123 501,-13 "/>
<path style="fill:none;stroke:black;" d="M501,-13C501,-7 507,-1 513,-1"/>
<text text-anchor="middle" x="619" y="-117.9" style="font-family:Times New Roman;font-size:14.00;">HomeController</text>
<polyline style="fill:none;stroke:black;" points="501,-110 738,-110 "/>
<text text-anchor="start" x="508.5" y="-93.4" style="font-family:Times New Roman;font-size:14.00;">_one_time_conditions_valid_99?</text>
<text text-anchor="start" x="508.5" y="-76.4" style="font-family:Times New Roman;font-size:14.00;">index</text>
<polyline style="fill:none;stroke:black;" points="501,-68 738,-68 "/>
<text text-anchor="start" x="508.5" y="-50.9" style="font-family:Times New Roman;font-size:14.00;">prepare_wizard_data</text>
<polyline style="fill:none;stroke:black;" points="501,-43 738,-43 "/>
<text text-anchor="start" x="508.5" y="-26.4" style="font-family:Times New Roman;font-size:14.00;">_layout</text>
<text text-anchor="start" x="508.5" y="-9.4" style="font-family:Times New Roman;font-size:14.00;">_run_process_action_callbacks</text>
</g>
</g>
</svg>
