<?xml version="1.0" encoding="UTF-8" standalone="no"?>
<!DOCTYPE svg PUBLIC "-//W3C//DTD SVG 1.0//EN"
 "http://www.w3.org/TR/2001/REC-SVG-20010904/DTD/svg10.dtd" [
 <!ATTLIST svg xmlns:xlink CDATA #FIXED "http://www.w3.org/1999/xlink">
]>
<!-- Generated by Graphviz version 2.20.2 (Tue Mar &#160;2 21:46:26 UTC 2010)
     For user: (jits) Jits,,, -->
<!-- Title: models_diagram Pages: 1 -->
<svg width="418pt" height="430pt"
 viewBox="0.00 0.00 418.00 430.00" xmlns="http://www.w3.org/2000/svg" xmlns:xlink="http://www.w3.org/1999/xlink">
<g id="graph0" class="graph" transform="scale(1 1) rotate(0) translate(4 426)">
<title>models_diagram</title>
<polygon style="fill:white;stroke:white;" points="-4,4 -4,-426 414,-426 414,4 -4,4"/>
<!-- _diagram_info -->
<g id="node1" class="node"><title>_diagram_info</title>
<text text-anchor="start" x="7.5" y="-405.8" style="font-family:Times New Roman;font-size:13.00;">Models diagram</text>
<text text-anchor="start" x="7.5" y="-388.8" style="font-family:Times New Roman;font-size:13.00;">Date: Apr 07 2011 &#45; 10:02</text>
<text text-anchor="start" x="7.5" y="-371.8" style="font-family:Times New Roman;font-size:13.00;">Migration version: 20110406150131</text>
<text text-anchor="start" x="7.5" y="-354.8" style="font-family:Times New Roman;font-size:13.00;">Generated by RailRoady 1.0.2</text>
<text text-anchor="start" x="7.5" y="-337.8" style="font-family:Times New Roman;font-size:13.00;">http://railroady.prestonlee.com</text>
</g>
<!-- DropboxEntry -->
<g id="node2" class="node"><title>DropboxEntry</title>
<ellipse style="fill:none;stroke:black;" cx="89" cy="-18" rx="77.8268" ry="18"/>
<text text-anchor="middle" x="89" y="-13.9" style="font-family:Times New Roman;font-size:14.00;">DropboxEntry</text>
</g>
<!-- DropboxEntry&#45;&gt;DropboxEntry -->
<g id="edge2" class="edge"><title>DropboxEntry&#45;&gt;DropboxEntry</title>
<path style="fill:none;stroke:black;" d="M167,-25C178,-24 185,-22 185,-18 185,-14 179,-12 169,-11"/>
<ellipse style="fill:none;stroke:black;" cx="162.969" cy="-25.5038" rx="4.00001" ry="4.00001"/>
<polygon style="fill:black;stroke:black;" points="168.95,-10.9951 159.448,-5.52233 163.975,-10.4976 159,-10 159,-10 159,-10 163.975,-10.4976 158.552,-14.4777 168.95,-10.9951 168.95,-10.9951"/>
<text text-anchor="middle" x="212" y="-13.9" style="font-family:Times New Roman;font-size:14.00;">children</text>
</g>
<!-- DropboxResearchObjectContainer -->
<g id="node3" class="node"><title>DropboxResearchObjectContainer</title>
<ellipse style="fill:none;stroke:black;" cx="202" cy="-182" rx="173.026" ry="18"/>
<text text-anchor="middle" x="202" y="-177.9" style="font-family:Times New Roman;font-size:14.00;">DropboxResearchObjectContainer</text>
</g>
<!-- ResearchObject -->
<g id="node6" class="node"><title>ResearchObject</title>
<ellipse style="fill:none;stroke:black;" cx="89" cy="-108" rx="84.9707" ry="18"/>
<text text-anchor="middle" x="89" y="-103.9" style="font-family:Times New Roman;font-size:14.00;">ResearchObject</text>
</g>
<!-- DropboxResearchObjectContainer&#45;&gt;ResearchObject -->
<g id="edge6" class="edge"><title>DropboxResearchObjectContainer&#45;&gt;ResearchObject</title>
<path style="fill:none;stroke:black;" d="M168,-159C154,-150 138,-140 124,-131"/>
<ellipse style="fill:none;stroke:black;" cx="171.745" cy="-161.675" rx="4.00002" ry="4.00002"/>
<polygon style="fill:black;stroke:black;" points="123.321,-130.547 117.496,-121.256 119.16,-127.774 115,-125 115,-125 115,-125 119.16,-127.774 112.504,-128.744 123.321,-130.547 123.321,-130.547"/>
</g>
<!-- SyncJob -->
<g id="node7" class="node"><title>SyncJob</title>
<ellipse style="fill:none;stroke:black;" cx="240" cy="-108" rx="48.1403" ry="18"/>
<text text-anchor="middle" x="240" y="-103.9" style="font-family:Times New Roman;font-size:14.00;">SyncJob</text>
</g>
<!-- DropboxResearchObjectContainer&#45;&gt;SyncJob -->
<g id="edge4" class="edge"><title>DropboxResearchObjectContainer&#45;&gt;SyncJob</title>
<path style="fill:none;stroke:black;" d="M215,-157C218,-149 222,-142 226,-135"/>
<ellipse style="fill:none;stroke:black;" cx="212.985" cy="-160.527" rx="4.00002" ry="4.00002"/>
<polygon style="fill:black;stroke:black;" points="226.144,-134.742 234.934,-128.185 228.572,-130.371 231,-126 231,-126 231,-126 228.572,-130.371 227.066,-123.815 226.144,-134.742 226.144,-134.742"/>
</g>
<!-- DropboxAccount -->
<g id="node4" class="node"><title>DropboxAccount</title>
<ellipse style="fill:none;stroke:black;" cx="202" cy="-272" rx="89.139" ry="18"/>
<text text-anchor="middle" x="202" y="-267.9" style="font-family:Times New Roman;font-size:14.00;">DropboxAccount</text>
</g>
<!-- DropboxAccount&#45;&gt;DropboxResearchObjectContainer -->
<g id="edge8" class="edge"><title>DropboxAccount&#45;&gt;DropboxResearchObjectContainer</title>
<path style="fill:none;stroke:black;" d="M202,-246C202,-235 202,-222 202,-210"/>
<ellipse style="fill:none;stroke:black;" cx="202" cy="-250" rx="4" ry="4"/>
<polygon style="fill:black;stroke:black;" points="202,-210 206.5,-200 202,-205 202,-200 202,-200 202,-200 202,-205 197.5,-200 202,-210 202,-210"/>
<text text-anchor="middle" x="249" y="-222.9" style="font-family:Times New Roman;font-size:14.00;">ro_containers</text>
</g>
<!-- User -->
<g id="node5" class="node"><title>User</title>
<ellipse style="fill:none;stroke:black;" cx="299" cy="-375" rx="32.8565" ry="18"/>
<text text-anchor="middle" x="299" y="-370.9" style="font-family:Times New Roman;font-size:14.00;">User</text>
</g>
<!-- User&#45;&gt;DropboxAccount -->
<g id="edge12" class="edge"><title>User&#45;&gt;DropboxAccount</title>
<path style="fill:none;stroke:black;" d="M280,-353C273,-345 264,-336 257,-328 248,-318 237,-307 227,-297"/>
<ellipse style="fill:none;stroke:black;" cx="282.439" cy="-355.927" rx="4.00002" ry="4.00002"/>
<polygon style="fill:black;stroke:black;" points="227.071,-297.071 223.182,-286.818 223.536,-293.536 220,-290 220,-290 220,-290 223.536,-293.536 216.818,-293.182 227.071,-297.071 227.071,-297.071"/>
</g>
<!-- Role -->
<g id="node9" class="node"><title>Role</title>
<ellipse style="fill:none;stroke:black;" cx="340" cy="-272" rx="30.7734" ry="18"/>
<text text-anchor="middle" x="340" y="-267.9" style="font-family:Times New Roman;font-size:14.00;">Role</text>
</g>
<!-- User&#45;&gt;Role -->
<g id="edge10" class="edge"><title>User&#45;&gt;Role</title>
<path style="fill:none;stroke:black;" d="M310,-348C316,-332 323,-314 329,-299"/>
<polygon style="fill:black;stroke:black;" points="310.061,-347.862 301.888,-355.172 308.031,-352.431 306,-357 306,-357 306,-357 308.031,-352.431 310.112,-358.828 310.061,-347.862 310.061,-347.862"/>
<polygon style="fill:black;stroke:black;" points="328.939,-299.138 337.112,-291.828 330.969,-294.569 333,-290 333,-290 333,-290 330.969,-294.569 328.888,-288.172 328.939,-299.138 328.939,-299.138"/>
</g>
<!-- ResearchObject&#45;&gt;DropboxEntry -->
<g id="edge14" class="edge"><title>ResearchObject&#45;&gt;DropboxEntry</title>
<path style="fill:none;stroke:black;" d="M88,-82C87,-79 87,-75 87,-72 87,-64 87,-61 87,-54 87,-51 87,-49 87,-46"/>
<ellipse style="fill:none;stroke:black;" cx="88" cy="-86" rx="4" ry="4"/>
<polygon style="fill:black;stroke:black;" points="87.0049,-45.9504 92.4777,-36.4478 87.5024,-40.9752 88,-36 88,-36 88,-36 87.5024,-40.9752 83.5223,-35.5522 87.0049,-45.9504 87.0049,-45.9504"/>
</g>
<!-- ResearchObject&#45;&gt;DropboxEntry -->
<g id="edge16" class="edge"><title>ResearchObject&#45;&gt;DropboxEntry</title>
<path style="fill:none;stroke:black;" d="M89,-82C89,-71 89,-58 89,-46"/>
<ellipse style="fill:none;stroke:black;" cx="89" cy="-86" rx="4" ry="4"/>
<polygon style="fill:black;stroke:black;" points="89.0001,-46 93.5,-36 89,-41 89,-36 89,-36 89,-36 89,-41 84.5,-36 89.0001,-46 89.0001,-46"/>
<text text-anchor="middle" x="117" y="-58.9" style="font-family:Times New Roman;font-size:14.00;">children</text>
</g>
<!-- Ability -->
<g id="node8" class="node"><title>Ability</title>
<polygon style="fill:none;stroke:black;" points="410,-393 350,-393 350,-357 410,-357 410,-393"/>
<text text-anchor="middle" x="380" y="-370.9" style="font-family:Times New Roman;font-size:14.00;">Ability</text>
</g>
</g>
</svg>
