<?xml version="1.0" encoding="UTF-8" standalone="no"?>
<!DOCTYPE svg PUBLIC "-//W3C//DTD SVG 1.0//EN"
 "http://www.w3.org/TR/2001/REC-SVG-20010904/DTD/svg10.dtd" [
 <!ATTLIST svg xmlns:xlink CDATA #FIXED "http://www.w3.org/1999/xlink">
]>
<!-- Generated by Graphviz version 2.20.2 (Tue Mar &#160;2 21:46:26 UTC 2010)
     For user: (jits) Jits,,, -->
<!-- Title: models_diagram Pages: 1 -->
<svg width="1222pt" height="554pt"
 viewBox="0.00 0.00 1222.00 554.00" xmlns="http://www.w3.org/2000/svg" xmlns:xlink="http://www.w3.org/1999/xlink">
<g id="graph0" class="graph" transform="scale(1 1) rotate(0) translate(4 550)">
<title>models_diagram</title>
<polygon style="fill:white;stroke:white;" points="-4,4 -4,-550 1218,-550 1218,4 -4,4"/>
<!-- _diagram_info -->
<g id="node1" class="node"><title>_diagram_info</title>
<text text-anchor="start" x="7.5" y="-398.8" style="font-family:Times New Roman;font-size:13.00;">Models diagram</text>
<text text-anchor="start" x="7.5" y="-381.8" style="font-family:Times New Roman;font-size:13.00;">Date: Apr 05 2011 &#45; 10:47</text>
<text text-anchor="start" x="7.5" y="-364.8" style="font-family:Times New Roman;font-size:13.00;">Migration version: 20110405093135</text>
<text text-anchor="start" x="7.5" y="-347.8" style="font-family:Times New Roman;font-size:13.00;">Generated by RailRoady 1.0.2</text>
<text text-anchor="start" x="7.5" y="-330.8" style="font-family:Times New Roman;font-size:13.00;">http://railroady.prestonlee.com</text>
</g>
<!-- DropboxEntry -->
<g id="node2" class="node"><title>DropboxEntry</title>
<polyline style="fill:none;stroke:black;" points="270,-0 426,-0 "/>
<path style="fill:none;stroke:black;" d="M426,-0C432,-0 438,-6 438,-12"/>
<polyline style="fill:none;stroke:black;" points="438,-12 438,-123 "/>
<path style="fill:none;stroke:black;" d="M438,-123C438,-129 432,-135 426,-135"/>
<polyline style="fill:none;stroke:black;" points="426,-135 270,-135 "/>
<path style="fill:none;stroke:black;" d="M270,-135C264,-135 258,-129 258,-123"/>
<polyline style="fill:none;stroke:black;" points="258,-123 258,-12 "/>
<path style="fill:none;stroke:black;" d="M258,-12C258,-6 264,-0 270,-0"/>
<text text-anchor="middle" x="348" y="-117.9" style="font-family:Times New Roman;font-size:14.00;">DropboxEntry</text>
<polyline style="fill:none;stroke:black;" points="258,-110 438,-110 "/>
<text text-anchor="start" x="266" y="-93.4" style="font-family:Times New Roman;font-size:14.00;">path :string</text>
<text text-anchor="start" x="266" y="-76.4" style="font-family:Times New Roman;font-size:14.00;">entry_type_code :string</text>
<text text-anchor="start" x="266" y="-59.4" style="font-family:Times New Roman;font-size:14.00;">hash :string</text>
<text text-anchor="start" x="266" y="-42.4" style="font-family:Times New Roman;font-size:14.00;">revision :integer</text>
<text text-anchor="start" x="266" y="-25.4" style="font-family:Times New Roman;font-size:14.00;">created_at :datetime</text>
<text text-anchor="start" x="266" y="-8.4" style="font-family:Times New Roman;font-size:14.00;">updated_at :datetime</text>
</g>
<!-- DropboxResearchObjectContainer -->
<g id="node3" class="node"><title>DropboxResearchObjectContainer</title>
<polyline style="fill:none;stroke:black;" points="460,-317 685,-317 "/>
<path style="fill:none;stroke:black;" d="M685,-317C691,-317 697,-323 697,-329"/>
<polyline style="fill:none;stroke:black;" points="697,-329 697,-406 "/>
<path style="fill:none;stroke:black;" d="M697,-406C697,-412 691,-418 685,-418"/>
<polyline style="fill:none;stroke:black;" points="685,-418 460,-418 "/>
<path style="fill:none;stroke:black;" d="M460,-418C454,-418 448,-412 448,-406"/>
<polyline style="fill:none;stroke:black;" points="448,-406 448,-329 "/>
<path style="fill:none;stroke:black;" d="M448,-329C448,-323 454,-317 460,-317"/>
<text text-anchor="middle" x="572" y="-400.9" style="font-family:Times New Roman;font-size:14.00;">DropboxResearchObjectContainer</text>
<polyline style="fill:none;stroke:black;" points="448,-393 697,-393 "/>
<text text-anchor="start" x="455.5" y="-376.4" style="font-family:Times New Roman;font-size:14.00;">path :string</text>
<text text-anchor="start" x="455.5" y="-359.4" style="font-family:Times New Roman;font-size:14.00;">workspace_password :string</text>
<text text-anchor="start" x="455.5" y="-342.4" style="font-family:Times New Roman;font-size:14.00;">created_at :datetime</text>
<text text-anchor="start" x="455.5" y="-325.4" style="font-family:Times New Roman;font-size:14.00;">updated_at :datetime</text>
</g>
<!-- DropboxAccount -->
<g id="node4" class="node"><title>DropboxAccount</title>
<polyline style="fill:none;stroke:black;" points="672,-17 813,-17 "/>
<path style="fill:none;stroke:black;" d="M813,-17C819,-17 825,-23 825,-29"/>
<polyline style="fill:none;stroke:black;" points="825,-29 825,-106 "/>
<path style="fill:none;stroke:black;" d="M825,-106C825,-112 819,-118 813,-118"/>
<polyline style="fill:none;stroke:black;" points="813,-118 672,-118 "/>
<path style="fill:none;stroke:black;" d="M672,-118C666,-118 660,-112 660,-106"/>
<polyline style="fill:none;stroke:black;" points="660,-106 660,-29 "/>
<path style="fill:none;stroke:black;" d="M660,-29C660,-23 666,-17 672,-17"/>
<text text-anchor="middle" x="742" y="-100.9" style="font-family:Times New Roman;font-size:14.00;">DropboxAccount</text>
<polyline style="fill:none;stroke:black;" points="660,-93 825,-93 "/>
<text text-anchor="start" x="667.5" y="-76.4" style="font-family:Times New Roman;font-size:14.00;">access_token :string</text>
<text text-anchor="start" x="667.5" y="-59.4" style="font-family:Times New Roman;font-size:14.00;">access_secret :string</text>
<text text-anchor="start" x="667.5" y="-42.4" style="font-family:Times New Roman;font-size:14.00;">created_at :datetime</text>
<text text-anchor="start" x="667.5" y="-25.4" style="font-family:Times New Roman;font-size:14.00;">updated_at :datetime</text>
</g>
<!-- User -->
<g id="node5" class="node"><title>User</title>
<polyline style="fill:none;stroke:black;" points="726,-190 940,-190 "/>
<path style="fill:none;stroke:black;" d="M940,-190C946,-190 952,-196 952,-202"/>
<polyline style="fill:none;stroke:black;" points="952,-202 952,-534 "/>
<path style="fill:none;stroke:black;" d="M952,-534C952,-540 946,-546 940,-546"/>
<polyline style="fill:none;stroke:black;" points="940,-546 726,-546 "/>
<path style="fill:none;stroke:black;" d="M726,-546C720,-546 714,-540 714,-534"/>
<polyline style="fill:none;stroke:black;" points="714,-534 714,-202 "/>
<path style="fill:none;stroke:black;" d="M714,-202C714,-196 720,-190 726,-190"/>
<text text-anchor="middle" x="833" y="-528.9" style="font-family:Times New Roman;font-size:14.00;">User</text>
<polyline style="fill:none;stroke:black;" points="714,-521 952,-521 "/>
<text text-anchor="start" x="722" y="-503.9" style="font-family:Times New Roman;font-size:14.00;">email :string</text>
<text text-anchor="start" x="722" y="-486.9" style="font-family:Times New Roman;font-size:14.00;">encrypted_password :string</text>
<text text-anchor="start" x="722" y="-469.9" style="font-family:Times New Roman;font-size:14.00;">password_salt :string</text>
<text text-anchor="start" x="722" y="-452.9" style="font-family:Times New Roman;font-size:14.00;">reset_password_token :string</text>
<text text-anchor="start" x="722" y="-435.9" style="font-family:Times New Roman;font-size:14.00;">remember_token :string</text>
<text text-anchor="start" x="722" y="-418.9" style="font-family:Times New Roman;font-size:14.00;">remember_created_at :datetime</text>
<text text-anchor="start" x="722" y="-401.9" style="font-family:Times New Roman;font-size:14.00;">current_sign_in_at :datetime</text>
<text text-anchor="start" x="722" y="-384.9" style="font-family:Times New Roman;font-size:14.00;">last_sign_in_at :datetime</text>
<text text-anchor="start" x="722" y="-367.9" style="font-family:Times New Roman;font-size:14.00;">current_sign_in_ip :string</text>
<text text-anchor="start" x="722" y="-350.9" style="font-family:Times New Roman;font-size:14.00;">last_sign_in_ip :string</text>
<text text-anchor="start" x="722" y="-333.9" style="font-family:Times New Roman;font-size:14.00;">confirmation_token :string</text>
<text text-anchor="start" x="722" y="-316.9" style="font-family:Times New Roman;font-size:14.00;">confirmed_at :datetime</text>
<text text-anchor="start" x="722" y="-299.9" style="font-family:Times New Roman;font-size:14.00;">confirmation_sent_at :datetime</text>
<text text-anchor="start" x="722" y="-282.9" style="font-family:Times New Roman;font-size:14.00;">authentication_token :string</text>
<text text-anchor="start" x="722" y="-265.9" style="font-family:Times New Roman;font-size:14.00;">created_at :datetime</text>
<text text-anchor="start" x="722" y="-248.9" style="font-family:Times New Roman;font-size:14.00;">updated_at :datetime</text>
<text text-anchor="start" x="722" y="-231.9" style="font-family:Times New Roman;font-size:14.00;">name :string</text>
<text text-anchor="start" x="722" y="-214.9" style="font-family:Times New Roman;font-size:14.00;">cached_slug :string</text>
<text text-anchor="start" x="722" y="-197.9" style="font-family:Times New Roman;font-size:14.00;">deleted_at :datetime</text>
</g>
<!-- User&#45;&gt;DropboxAccount -->
<g id="edge4" class="edge"><title>User&#45;&gt;DropboxAccount</title>
<path style="fill:none;stroke:black;" d="M777,-182C770,-163 764,-145 760,-128"/>
<ellipse style="fill:none;stroke:black;" cx="778.03" cy="-186.119" rx="4.00001" ry="4.00001"/>
<polygon style="fill:black;stroke:black;" points="759.874,-127.578 761.31,-116.707 758.437,-122.789 757,-118 757,-118 757,-118 758.437,-122.789 752.69,-119.293 759.874,-127.578 759.874,-127.578"/>
</g>
<!-- Role -->
<g id="node9" class="node"><title>Role</title>
<polyline style="fill:none;stroke:black;" points="854,-26 995,-26 "/>
<path style="fill:none;stroke:black;" d="M995,-26C1001,-26 1007,-32 1007,-38"/>
<polyline style="fill:none;stroke:black;" points="1007,-38 1007,-98 "/>
<path style="fill:none;stroke:black;" d="M1007,-98C1007,-104 1001,-110 995,-110"/>
<polyline style="fill:none;stroke:black;" points="995,-110 854,-110 "/>
<path style="fill:none;stroke:black;" d="M854,-110C848,-110 842,-104 842,-98"/>
<polyline style="fill:none;stroke:black;" points="842,-98 842,-38 "/>
<path style="fill:none;stroke:black;" d="M842,-38C842,-32 848,-26 854,-26"/>
<text text-anchor="middle" x="924" y="-92.9" style="font-family:Times New Roman;font-size:14.00;">Role</text>
<polyline style="fill:none;stroke:black;" points="842,-85 1007,-85 "/>
<text text-anchor="start" x="849.5" y="-67.9" style="font-family:Times New Roman;font-size:14.00;">name :string</text>
<text text-anchor="start" x="849.5" y="-50.9" style="font-family:Times New Roman;font-size:14.00;">created_at :datetime</text>
<text text-anchor="start" x="849.5" y="-33.9" style="font-family:Times New Roman;font-size:14.00;">updated_at :datetime</text>
</g>
<!-- User&#45;&gt;Role -->
<g id="edge2" class="edge"><title>User&#45;&gt;Role</title>
<path style="fill:none;stroke:black;" d="M890,-180C897,-158 903,-138 908,-120"/>
<polygon style="fill:black;stroke:black;" points="889.874,-180.422 882.69,-188.707 888.437,-185.211 887,-190 887,-190 887,-190 888.437,-185.211 891.31,-191.293 889.874,-180.422 889.874,-180.422"/>
<polygon style="fill:black;stroke:black;" points="908.126,-119.578 915.31,-111.293 909.563,-114.789 911,-110 911,-110 911,-110 909.563,-114.789 906.69,-108.707 908.126,-119.578 908.126,-119.578"/>
</g>
<!-- ResearchObject -->
<g id="node6" class="node"><title>ResearchObject</title>
<polyline style="fill:none;stroke:black;" points="278,-326 419,-326 "/>
<path style="fill:none;stroke:black;" d="M419,-326C425,-326 431,-332 431,-338"/>
<polyline style="fill:none;stroke:black;" points="431,-338 431,-398 "/>
<path style="fill:none;stroke:black;" d="M431,-398C431,-404 425,-410 419,-410"/>
<polyline style="fill:none;stroke:black;" points="419,-410 278,-410 "/>
<path style="fill:none;stroke:black;" d="M278,-410C272,-410 266,-404 266,-398"/>
<polyline style="fill:none;stroke:black;" points="266,-398 266,-338 "/>
<path style="fill:none;stroke:black;" d="M266,-338C266,-332 272,-326 278,-326"/>
<text text-anchor="middle" x="348" y="-392.9" style="font-family:Times New Roman;font-size:14.00;">ResearchObject</text>
<polyline style="fill:none;stroke:black;" points="266,-385 431,-385 "/>
<text text-anchor="start" x="273.5" y="-367.9" style="font-family:Times New Roman;font-size:14.00;">name :string</text>
<text text-anchor="start" x="273.5" y="-350.9" style="font-family:Times New Roman;font-size:14.00;">created_at :datetime</text>
<text text-anchor="start" x="273.5" y="-333.9" style="font-family:Times New Roman;font-size:14.00;">updated_at :datetime</text>
</g>
<!-- ResearchObject&#45;&gt;DropboxEntry -->
<g id="edge6" class="edge"><title>ResearchObject&#45;&gt;DropboxEntry</title>
<path style="fill:none;stroke:black;" d="M347,-318C346,-275 344,-210 345,-154 345,-151 345,-148 345,-145"/>
<ellipse style="fill:none;stroke:black;" cx="347" cy="-322" rx="4" ry="4"/>
<polygon style="fill:black;stroke:black;" points="345.005,-144.95 350.478,-135.448 345.502,-139.975 346,-135 346,-135 346,-135 345.502,-139.975 341.522,-134.552 345.005,-144.95 345.005,-144.95"/>
</g>
<!-- ResearchObject&#45;&gt;DropboxEntry -->
<g id="edge8" class="edge"><title>ResearchObject&#45;&gt;DropboxEntry</title>
<path style="fill:none;stroke:black;" d="M348,-318C348,-270 348,-199 348,-145"/>
<ellipse style="fill:none;stroke:black;" cx="348" cy="-322" rx="4" ry="4"/>
<polygon style="fill:black;stroke:black;" points="348,-145 352.5,-135 348,-140 348,-135 348,-135 348,-135 348,-140 343.5,-135 348,-145 348,-145"/>
<text text-anchor="middle" x="376" y="-158.9" style="font-family:Times New Roman;font-size:14.00;">children</text>
</g>
<!-- SyncJob -->
<g id="node7" class="node"><title>SyncJob</title>
<polyline style="fill:none;stroke:black;" points="982,-292 1124,-292 "/>
<path style="fill:none;stroke:black;" d="M1124,-292C1130,-292 1136,-298 1136,-304"/>
<polyline style="fill:none;stroke:black;" points="1136,-304 1136,-432 "/>
<path style="fill:none;stroke:black;" d="M1136,-432C1136,-438 1130,-444 1124,-444"/>
<polyline style="fill:none;stroke:black;" points="1124,-444 982,-444 "/>
<path style="fill:none;stroke:black;" d="M982,-444C976,-444 970,-438 970,-432"/>
<polyline style="fill:none;stroke:black;" points="970,-432 970,-304 "/>
<path style="fill:none;stroke:black;" d="M970,-304C970,-298 976,-292 982,-292"/>
<text text-anchor="middle" x="1053" y="-426.9" style="font-family:Times New Roman;font-size:14.00;">SyncJob</text>
<polyline style="fill:none;stroke:black;" points="970,-419 1136,-419 "/>
<text text-anchor="start" x="978" y="-401.9" style="font-family:Times New Roman;font-size:14.00;">started_at :datetime</text>
<text text-anchor="start" x="978" y="-384.9" style="font-family:Times New Roman;font-size:14.00;">finished_at :datetime</text>
<text text-anchor="start" x="978" y="-367.9" style="font-family:Times New Roman;font-size:14.00;">status_code :string</text>
<text text-anchor="start" x="978" y="-350.9" style="font-family:Times New Roman;font-size:14.00;">created_at :datetime</text>
<text text-anchor="start" x="978" y="-333.9" style="font-family:Times New Roman;font-size:14.00;">updated_at :datetime</text>
<text text-anchor="start" x="978" y="-316.9" style="font-family:Times New Roman;font-size:14.00;">error_message :string</text>
<text text-anchor="start" x="978" y="-299.9" style="font-family:Times New Roman;font-size:14.00;">stats :text</text>
</g>
<!-- Ability -->
<g id="node8" class="node"><title>Ability</title>
<polygon style="fill:none;stroke:black;" points="1154,-343 1154,-393 1214,-393 1214,-343 1154,-343"/>
<text text-anchor="middle" x="1184" y="-375.9" style="font-family:Times New Roman;font-size:14.00;">Ability</text>
<polyline style="fill:none;stroke:black;" points="1154,-368 1214,-368 "/>
<text text-anchor="middle" x="1184" y="-350.9" style="font-family:Times New Roman;font-size:14.00;"> </text>
</g>
</g>
</svg>
