<?xml version="1.0" encoding="UTF-8" standalone="no"?>
<!DOCTYPE svg PUBLIC "-//W3C//DTD SVG 1.0//EN"
 "http://www.w3.org/TR/2001/REC-SVG-20010904/DTD/svg10.dtd" [
 <!ATTLIST svg xmlns:xlink CDATA #FIXED "http://www.w3.org/1999/xlink">
]>
<!-- Generated by Graphviz version 2.20.2 (Tue Mar &#160;2 21:46:26 UTC 2010)
     For user: (jits) Jits,,, -->
<!-- Title: models_diagram Pages: 1 -->
<svg width="872pt" height="900pt"
 viewBox="0.00 0.00 872.00 900.00" xmlns="http://www.w3.org/2000/svg" xmlns:xlink="http://www.w3.org/1999/xlink">
<g id="graph0" class="graph" transform="scale(1 1) rotate(0) translate(4 896)">
<title>models_diagram</title>
<polygon style="fill:white;stroke:white;" points="-4,4 -4,-896 868,-896 868,4 -4,4"/>
<!-- _diagram_info -->
<g id="node1" class="node"><title>_diagram_info</title>
<text text-anchor="start" x="7.5" y="-744.8" style="font-family:Times New Roman;font-size:13.00;">Models diagram</text>
<text text-anchor="start" x="7.5" y="-727.8" style="font-family:Times New Roman;font-size:13.00;">Date: Apr 05 2011 &#45; 16:35</text>
<text text-anchor="start" x="7.5" y="-710.8" style="font-family:Times New Roman;font-size:13.00;">Migration version: 20110405122455</text>
<text text-anchor="start" x="7.5" y="-693.8" style="font-family:Times New Roman;font-size:13.00;">Generated by RailRoady 1.0.2</text>
<text text-anchor="start" x="7.5" y="-676.8" style="font-family:Times New Roman;font-size:13.00;">http://railroady.prestonlee.com</text>
</g>
<!-- DropboxEntry -->
<g id="node2" class="node"><title>DropboxEntry</title>
<polyline style="fill:none;stroke:black;" points="269,-346 425,-346 "/>
<path style="fill:none;stroke:black;" d="M425,-346C431,-346 437,-352 437,-358"/>
<polyline style="fill:none;stroke:black;" points="437,-358 437,-469 "/>
<path style="fill:none;stroke:black;" d="M437,-469C437,-475 431,-481 425,-481"/>
<polyline style="fill:none;stroke:black;" points="425,-481 269,-481 "/>
<path style="fill:none;stroke:black;" d="M269,-481C263,-481 257,-475 257,-469"/>
<polyline style="fill:none;stroke:black;" points="257,-469 257,-358 "/>
<path style="fill:none;stroke:black;" d="M257,-358C257,-352 263,-346 269,-346"/>
<text text-anchor="middle" x="347" y="-463.9" style="font-family:Times New Roman;font-size:14.00;">DropboxEntry</text>
<polyline style="fill:none;stroke:black;" points="257,-456 437,-456 "/>
<text text-anchor="start" x="265" y="-439.4" style="font-family:Times New Roman;font-size:14.00;">path :string</text>
<text text-anchor="start" x="265" y="-422.4" style="font-family:Times New Roman;font-size:14.00;">entry_type_code :string</text>
<text text-anchor="start" x="265" y="-405.4" style="font-family:Times New Roman;font-size:14.00;">hash :string</text>
<text text-anchor="start" x="265" y="-388.4" style="font-family:Times New Roman;font-size:14.00;">revision :integer</text>
<text text-anchor="start" x="265" y="-371.4" style="font-family:Times New Roman;font-size:14.00;">created_at :datetime</text>
<text text-anchor="start" x="265" y="-354.4" style="font-family:Times New Roman;font-size:14.00;">updated_at :datetime</text>
</g>
<!-- DropboxResearchObjectContainer -->
<g id="node3" class="node"><title>DropboxResearchObjectContainer</title>
<polyline style="fill:none;stroke:black;" points="425,-190 650,-190 "/>
<path style="fill:none;stroke:black;" d="M650,-190C656,-190 662,-196 662,-202"/>
<polyline style="fill:none;stroke:black;" points="662,-202 662,-279 "/>
<path style="fill:none;stroke:black;" d="M662,-279C662,-285 656,-291 650,-291"/>
<polyline style="fill:none;stroke:black;" points="650,-291 425,-291 "/>
<path style="fill:none;stroke:black;" d="M425,-291C419,-291 413,-285 413,-279"/>
<polyline style="fill:none;stroke:black;" points="413,-279 413,-202 "/>
<path style="fill:none;stroke:black;" d="M413,-202C413,-196 419,-190 425,-190"/>
<text text-anchor="middle" x="537" y="-273.9" style="font-family:Times New Roman;font-size:14.00;">DropboxResearchObjectContainer</text>
<polyline style="fill:none;stroke:black;" points="413,-266 662,-266 "/>
<text text-anchor="start" x="420.5" y="-249.4" style="font-family:Times New Roman;font-size:14.00;">path :string</text>
<text text-anchor="start" x="420.5" y="-232.4" style="font-family:Times New Roman;font-size:14.00;">workspace_password :string</text>
<text text-anchor="start" x="420.5" y="-215.4" style="font-family:Times New Roman;font-size:14.00;">created_at :datetime</text>
<text text-anchor="start" x="420.5" y="-198.4" style="font-family:Times New Roman;font-size:14.00;">updated_at :datetime</text>
</g>
<!-- SyncJob -->
<g id="node7" class="node"><title>SyncJob</title>
<polyline style="fill:none;stroke:black;" points="466,-0 608,-0 "/>
<path style="fill:none;stroke:black;" d="M608,-0C614,-0 620,-6 620,-12"/>
<polyline style="fill:none;stroke:black;" points="620,-12 620,-140 "/>
<path style="fill:none;stroke:black;" d="M620,-140C620,-146 614,-152 608,-152"/>
<polyline style="fill:none;stroke:black;" points="608,-152 466,-152 "/>
<path style="fill:none;stroke:black;" d="M466,-152C460,-152 454,-146 454,-140"/>
<polyline style="fill:none;stroke:black;" points="454,-140 454,-12 "/>
<path style="fill:none;stroke:black;" d="M454,-12C454,-6 460,-0 466,-0"/>
<text text-anchor="middle" x="537" y="-134.9" style="font-family:Times New Roman;font-size:14.00;">SyncJob</text>
<polyline style="fill:none;stroke:black;" points="454,-127 620,-127 "/>
<text text-anchor="start" x="462" y="-109.9" style="font-family:Times New Roman;font-size:14.00;">started_at :datetime</text>
<text text-anchor="start" x="462" y="-92.9" style="font-family:Times New Roman;font-size:14.00;">finished_at :datetime</text>
<text text-anchor="start" x="462" y="-75.9" style="font-family:Times New Roman;font-size:14.00;">status_code :string</text>
<text text-anchor="start" x="462" y="-58.9" style="font-family:Times New Roman;font-size:14.00;">created_at :datetime</text>
<text text-anchor="start" x="462" y="-41.9" style="font-family:Times New Roman;font-size:14.00;">updated_at :datetime</text>
<text text-anchor="start" x="462" y="-24.9" style="font-family:Times New Roman;font-size:14.00;">error_message :string</text>
<text text-anchor="start" x="462" y="-7.9" style="font-family:Times New Roman;font-size:14.00;">stats :text</text>
</g>
<!-- DropboxResearchObjectContainer&#45;&gt;SyncJob -->
<g id="edge2" class="edge"><title>DropboxResearchObjectContainer&#45;&gt;SyncJob</title>
<path style="fill:none;stroke:black;" d="M537,-182C537,-175 537,-169 537,-162"/>
<ellipse style="fill:none;stroke:black;" cx="537" cy="-186" rx="4" ry="4"/>
<polygon style="fill:black;stroke:black;" points="537,-162 541.5,-152 537,-157 537,-152 537,-152 537,-152 537,-157 532.5,-152 537,-162 537,-162"/>
</g>
<!-- DropboxAccount -->
<g id="node4" class="node"><title>DropboxAccount</title>
<polyline style="fill:none;stroke:black;" points="467,-363 608,-363 "/>
<path style="fill:none;stroke:black;" d="M608,-363C614,-363 620,-369 620,-375"/>
<polyline style="fill:none;stroke:black;" points="620,-375 620,-452 "/>
<path style="fill:none;stroke:black;" d="M620,-452C620,-458 614,-464 608,-464"/>
<polyline style="fill:none;stroke:black;" points="608,-464 467,-464 "/>
<path style="fill:none;stroke:black;" d="M467,-464C461,-464 455,-458 455,-452"/>
<polyline style="fill:none;stroke:black;" points="455,-452 455,-375 "/>
<path style="fill:none;stroke:black;" d="M455,-375C455,-369 461,-363 467,-363"/>
<text text-anchor="middle" x="537" y="-446.9" style="font-family:Times New Roman;font-size:14.00;">DropboxAccount</text>
<polyline style="fill:none;stroke:black;" points="455,-439 620,-439 "/>
<text text-anchor="start" x="462.5" y="-422.4" style="font-family:Times New Roman;font-size:14.00;">access_token :string</text>
<text text-anchor="start" x="462.5" y="-405.4" style="font-family:Times New Roman;font-size:14.00;">access_secret :string</text>
<text text-anchor="start" x="462.5" y="-388.4" style="font-family:Times New Roman;font-size:14.00;">created_at :datetime</text>
<text text-anchor="start" x="462.5" y="-371.4" style="font-family:Times New Roman;font-size:14.00;">updated_at :datetime</text>
</g>
<!-- DropboxAccount&#45;&gt;DropboxResearchObjectContainer -->
<g id="edge4" class="edge"><title>DropboxAccount&#45;&gt;DropboxResearchObjectContainer</title>
<path style="fill:none;stroke:black;" d="M537,-355C537,-337 537,-318 537,-301"/>
<ellipse style="fill:none;stroke:black;" cx="537" cy="-359" rx="4" ry="4"/>
<polygon style="fill:black;stroke:black;" points="537,-301 541.5,-291 537,-296 537,-291 537,-291 537,-291 537,-296 532.5,-291 537,-301 537,-301"/>
<text text-anchor="middle" x="584" y="-314.9" style="font-family:Times New Roman;font-size:14.00;">ro_containers</text>
</g>
<!-- User -->
<g id="node5" class="node"><title>User</title>
<polyline style="fill:none;stroke:black;" points="560,-536 774,-536 "/>
<path style="fill:none;stroke:black;" d="M774,-536C780,-536 786,-542 786,-548"/>
<polyline style="fill:none;stroke:black;" points="786,-548 786,-880 "/>
<path style="fill:none;stroke:black;" d="M786,-880C786,-886 780,-892 774,-892"/>
<polyline style="fill:none;stroke:black;" points="774,-892 560,-892 "/>
<path style="fill:none;stroke:black;" d="M560,-892C554,-892 548,-886 548,-880"/>
<polyline style="fill:none;stroke:black;" points="548,-880 548,-548 "/>
<path style="fill:none;stroke:black;" d="M548,-548C548,-542 554,-536 560,-536"/>
<text text-anchor="middle" x="667" y="-874.9" style="font-family:Times New Roman;font-size:14.00;">User</text>
<polyline style="fill:none;stroke:black;" points="548,-867 786,-867 "/>
<text text-anchor="start" x="556" y="-849.9" style="font-family:Times New Roman;font-size:14.00;">email :string</text>
<text text-anchor="start" x="556" y="-832.9" style="font-family:Times New Roman;font-size:14.00;">encrypted_password :string</text>
<text text-anchor="start" x="556" y="-815.9" style="font-family:Times New Roman;font-size:14.00;">password_salt :string</text>
<text text-anchor="start" x="556" y="-798.9" style="font-family:Times New Roman;font-size:14.00;">reset_password_token :string</text>
<text text-anchor="start" x="556" y="-781.9" style="font-family:Times New Roman;font-size:14.00;">remember_token :string</text>
<text text-anchor="start" x="556" y="-764.9" style="font-family:Times New Roman;font-size:14.00;">remember_created_at :datetime</text>
<text text-anchor="start" x="556" y="-747.9" style="font-family:Times New Roman;font-size:14.00;">current_sign_in_at :datetime</text>
<text text-anchor="start" x="556" y="-730.9" style="font-family:Times New Roman;font-size:14.00;">last_sign_in_at :datetime</text>
<text text-anchor="start" x="556" y="-713.9" style="font-family:Times New Roman;font-size:14.00;">current_sign_in_ip :string</text>
<text text-anchor="start" x="556" y="-696.9" style="font-family:Times New Roman;font-size:14.00;">last_sign_in_ip :string</text>
<text text-anchor="start" x="556" y="-679.9" style="font-family:Times New Roman;font-size:14.00;">confirmation_token :string</text>
<text text-anchor="start" x="556" y="-662.9" style="font-family:Times New Roman;font-size:14.00;">confirmed_at :datetime</text>
<text text-anchor="start" x="556" y="-645.9" style="font-family:Times New Roman;font-size:14.00;">confirmation_sent_at :datetime</text>
<text text-anchor="start" x="556" y="-628.9" style="font-family:Times New Roman;font-size:14.00;">authentication_token :string</text>
<text text-anchor="start" x="556" y="-611.9" style="font-family:Times New Roman;font-size:14.00;">created_at :datetime</text>
<text text-anchor="start" x="556" y="-594.9" style="font-family:Times New Roman;font-size:14.00;">updated_at :datetime</text>
<text text-anchor="start" x="556" y="-577.9" style="font-family:Times New Roman;font-size:14.00;">name :string</text>
<text text-anchor="start" x="556" y="-560.9" style="font-family:Times New Roman;font-size:14.00;">cached_slug :string</text>
<text text-anchor="start" x="556" y="-543.9" style="font-family:Times New Roman;font-size:14.00;">deleted_at :datetime</text>
</g>
<!-- User&#45;&gt;DropboxAccount -->
<g id="edge8" class="edge"><title>User&#45;&gt;DropboxAccount</title>
<path style="fill:none;stroke:black;" d="M587,-528C579,-509 570,-490 563,-474"/>
<ellipse style="fill:none;stroke:black;" cx="588.595" cy="-532.255" rx="4.00001" ry="4.00001"/>
<polygon style="fill:black;stroke:black;" points="562.714,-473.285 563.178,-462.329 560.857,-468.642 559,-464 559,-464 559,-464 560.857,-468.642 554.822,-465.671 562.714,-473.285 562.714,-473.285"/>
</g>
<!-- Role -->
<g id="node9" class="node"><title>Role</title>
<polyline style="fill:none;stroke:black;" points="649,-372 790,-372 "/>
<path style="fill:none;stroke:black;" d="M790,-372C796,-372 802,-378 802,-384"/>
<polyline style="fill:none;stroke:black;" points="802,-384 802,-444 "/>
<path style="fill:none;stroke:black;" d="M802,-444C802,-450 796,-456 790,-456"/>
<polyline style="fill:none;stroke:black;" points="790,-456 649,-456 "/>
<path style="fill:none;stroke:black;" d="M649,-456C643,-456 637,-450 637,-444"/>
<polyline style="fill:none;stroke:black;" points="637,-444 637,-384 "/>
<path style="fill:none;stroke:black;" d="M637,-384C637,-378 643,-372 649,-372"/>
<text text-anchor="middle" x="719" y="-438.9" style="font-family:Times New Roman;font-size:14.00;">Role</text>
<polyline style="fill:none;stroke:black;" points="637,-431 802,-431 "/>
<text text-anchor="start" x="644.5" y="-413.9" style="font-family:Times New Roman;font-size:14.00;">name :string</text>
<text text-anchor="start" x="644.5" y="-396.9" style="font-family:Times New Roman;font-size:14.00;">created_at :datetime</text>
<text text-anchor="start" x="644.5" y="-379.9" style="font-family:Times New Roman;font-size:14.00;">updated_at :datetime</text>
</g>
<!-- User&#45;&gt;Role -->
<g id="edge6" class="edge"><title>User&#45;&gt;Role</title>
<path style="fill:none;stroke:black;" d="M700,-526C703,-504 707,-484 710,-466"/>
<polygon style="fill:black;stroke:black;" points="699.961,-526.194 693.587,-535.117 698.981,-531.097 698,-536 698,-536 698,-536 698.981,-531.097 702.413,-536.883 699.961,-526.194 699.961,-526.194"/>
<polygon style="fill:black;stroke:black;" points="710.039,-465.806 716.413,-456.883 711.019,-460.903 712,-456 712,-456 712,-456 711.019,-460.903 707.587,-455.117 710.039,-465.806 710.039,-465.806"/>
</g>
<!-- ResearchObject -->
<g id="node6" class="node"><title>ResearchObject</title>
<polyline style="fill:none;stroke:black;" points="278,-672 419,-672 "/>
<path style="fill:none;stroke:black;" d="M419,-672C425,-672 431,-678 431,-684"/>
<polyline style="fill:none;stroke:black;" points="431,-684 431,-744 "/>
<path style="fill:none;stroke:black;" d="M431,-744C431,-750 425,-756 419,-756"/>
<polyline style="fill:none;stroke:black;" points="419,-756 278,-756 "/>
<path style="fill:none;stroke:black;" d="M278,-756C272,-756 266,-750 266,-744"/>
<polyline style="fill:none;stroke:black;" points="266,-744 266,-684 "/>
<path style="fill:none;stroke:black;" d="M266,-684C266,-678 272,-672 278,-672"/>
<text text-anchor="middle" x="348" y="-738.9" style="font-family:Times New Roman;font-size:14.00;">ResearchObject</text>
<polyline style="fill:none;stroke:black;" points="266,-731 431,-731 "/>
<text text-anchor="start" x="273.5" y="-713.9" style="font-family:Times New Roman;font-size:14.00;">name :string</text>
<text text-anchor="start" x="273.5" y="-696.9" style="font-family:Times New Roman;font-size:14.00;">created_at :datetime</text>
<text text-anchor="start" x="273.5" y="-679.9" style="font-family:Times New Roman;font-size:14.00;">updated_at :datetime</text>
</g>
<!-- ResearchObject&#45;&gt;DropboxEntry -->
<g id="edge10" class="edge"><title>ResearchObject&#45;&gt;DropboxEntry</title>
<path style="fill:none;stroke:black;" d="M347,-664C346,-621 344,-556 345,-500 345,-497 345,-494 345,-491"/>
<ellipse style="fill:none;stroke:black;" cx="347" cy="-668" rx="4" ry="4"/>
<polygon style="fill:black;stroke:black;" points="345,-491 349.5,-481 345,-486 345,-481 345,-481 345,-481 345,-486 340.5,-481 345,-491 345,-491"/>
</g>
<!-- ResearchObject&#45;&gt;DropboxEntry -->
<g id="edge12" class="edge"><title>ResearchObject&#45;&gt;DropboxEntry</title>
<path style="fill:none;stroke:black;" d="M348,-664C348,-616 348,-545 347,-491"/>
<ellipse style="fill:none;stroke:black;" cx="348" cy="-668" rx="4" ry="4"/>
<polygon style="fill:black;stroke:black;" points="347,-491 351.5,-481 347,-486 347,-481 347,-481 347,-481 347,-486 342.5,-481 347,-491 347,-491"/>
<text text-anchor="middle" x="376" y="-504.9" style="font-family:Times New Roman;font-size:14.00;">children</text>
</g>
<!-- Ability -->
<g id="node8" class="node"><title>Ability</title>
<polygon style="fill:none;stroke:black;" points="804,-689 804,-739 864,-739 864,-689 804,-689"/>
<text text-anchor="middle" x="834" y="-721.9" style="font-family:Times New Roman;font-size:14.00;">Ability</text>
<polyline style="fill:none;stroke:black;" points="804,-714 864,-714 "/>
<text text-anchor="middle" x="834" y="-696.9" style="font-family:Times New Roman;font-size:14.00;"> </text>
</g>
</g>
</svg>
