<?xml version="1.0" encoding="UTF-8" standalone="no"?>
<!DOCTYPE svg PUBLIC "-//W3C//DTD SVG 1.0//EN"
 "http://www.w3.org/TR/2001/REC-SVG-20010904/DTD/svg10.dtd" [
 <!ATTLIST svg xmlns:xlink CDATA #FIXED "http://www.w3.org/1999/xlink">
]>
<!-- Generated by Graphviz version 2.20.2 (Tue Mar &#160;2 21:46:26 UTC 2010)
     For user: (jits) Jits,,, -->
<!-- Title: models_diagram Pages: 1 -->
<svg width="751pt" height="356pt"
 viewBox="0.00 0.00 751.00 356.00" xmlns="http://www.w3.org/2000/svg" xmlns:xlink="http://www.w3.org/1999/xlink">
<g id="graph0" class="graph" transform="scale(1 1) rotate(0) translate(4 352)">
<title>models_diagram</title>
<polygon style="fill:white;stroke:white;" points="-4,4 -4,-352 747,-352 747,4 -4,4"/>
<!-- _diagram_info -->
<g id="node1" class="node"><title>_diagram_info</title>
<text text-anchor="start" x="7.5" y="-331.8" style="font-family:Times New Roman;font-size:13.00;">Models diagram</text>
<text text-anchor="start" x="7.5" y="-314.8" style="font-family:Times New Roman;font-size:13.00;">Date: Apr 05 2011 &#45; 16:36</text>
<text text-anchor="start" x="7.5" y="-297.8" style="font-family:Times New Roman;font-size:13.00;">Migration version: 20110405122455</text>
<text text-anchor="start" x="7.5" y="-280.8" style="font-family:Times New Roman;font-size:13.00;">Generated by RailRoady 1.0.2</text>
<text text-anchor="start" x="7.5" y="-263.8" style="font-family:Times New Roman;font-size:13.00;">http://railroady.prestonlee.com</text>
</g>
<!-- DropboxEntry -->
<g id="node2" class="node"><title>DropboxEntry</title>
<ellipse style="fill:none;stroke:black;" cx="350" cy="-182" rx="77.8268" ry="18"/>
<text text-anchor="middle" x="350" y="-177.9" style="font-family:Times New Roman;font-size:14.00;">DropboxEntry</text>
</g>
<!-- DropboxResearchObjectContainer -->
<g id="node3" class="node"><title>DropboxResearchObjectContainer</title>
<ellipse style="fill:none;stroke:black;" cx="535" cy="-92" rx="173.026" ry="18"/>
<text text-anchor="middle" x="535" y="-87.9" style="font-family:Times New Roman;font-size:14.00;">DropboxResearchObjectContainer</text>
</g>
<!-- SyncJob -->
<g id="node7" class="node"><title>SyncJob</title>
<ellipse style="fill:none;stroke:black;" cx="535" cy="-18" rx="48.1403" ry="18"/>
<text text-anchor="middle" x="535" y="-13.9" style="font-family:Times New Roman;font-size:14.00;">SyncJob</text>
</g>
<!-- DropboxResearchObjectContainer&#45;&gt;SyncJob -->
<g id="edge2" class="edge"><title>DropboxResearchObjectContainer&#45;&gt;SyncJob</title>
<path style="fill:none;stroke:black;" d="M535,-66C535,-60 535,-53 535,-46"/>
<ellipse style="fill:none;stroke:black;" cx="535" cy="-70" rx="4" ry="4"/>
<polygon style="fill:black;stroke:black;" points="535,-46 539.5,-36 535,-41 535,-36 535,-36 535,-36 535,-41 530.5,-36 535,-46 535,-46"/>
</g>
<!-- DropboxAccount -->
<g id="node4" class="node"><title>DropboxAccount</title>
<ellipse style="fill:none;stroke:black;" cx="535" cy="-182" rx="89.139" ry="18"/>
<text text-anchor="middle" x="535" y="-177.9" style="font-family:Times New Roman;font-size:14.00;">DropboxAccount</text>
</g>
<!-- DropboxAccount&#45;&gt;DropboxResearchObjectContainer -->
<g id="edge4" class="edge"><title>DropboxAccount&#45;&gt;DropboxResearchObjectContainer</title>
<path style="fill:none;stroke:black;" d="M535,-156C535,-145 535,-132 535,-120"/>
<ellipse style="fill:none;stroke:black;" cx="535" cy="-160" rx="4" ry="4"/>
<polygon style="fill:black;stroke:black;" points="535,-120 539.5,-110 535,-115 535,-110 535,-110 535,-110 535,-115 530.5,-110 535,-120 535,-120"/>
<text text-anchor="middle" x="582" y="-132.9" style="font-family:Times New Roman;font-size:14.00;">ro_containers</text>
</g>
<!-- User -->
<g id="node5" class="node"><title>User</title>
<ellipse style="fill:none;stroke:black;" cx="632" cy="-301" rx="32.8565" ry="18"/>
<text text-anchor="middle" x="632" y="-296.9" style="font-family:Times New Roman;font-size:14.00;">User</text>
</g>
<!-- User&#45;&gt;DropboxAccount -->
<g id="edge8" class="edge"><title>User&#45;&gt;DropboxAccount</title>
<path style="fill:none;stroke:black;" d="M614,-278C597,-258 573,-229 556,-208"/>
<ellipse style="fill:none;stroke:black;" cx="616.439" cy="-280.927" rx="4.00002" ry="4.00002"/>
<polygon style="fill:black;stroke:black;" points="556,-208 553.6,-197.3 553,-204 550,-200 550,-200 550,-200 553,-204 546.4,-202.7 556,-208 556,-208"/>
</g>
<!-- Role -->
<g id="node9" class="node"><title>Role</title>
<ellipse style="fill:none;stroke:black;" cx="673" cy="-182" rx="30.7734" ry="18"/>
<text text-anchor="middle" x="673" y="-177.9" style="font-family:Times New Roman;font-size:14.00;">Role</text>
</g>
<!-- User&#45;&gt;Role -->
<g id="edge6" class="edge"><title>User&#45;&gt;Role</title>
<path style="fill:none;stroke:black;" d="M641,-273C648,-254 657,-229 664,-210"/>
<polygon style="fill:black;stroke:black;" points="640.874,-273.422 633.69,-281.707 639.437,-278.211 638,-283 638,-283 638,-283 639.437,-278.211 642.31,-284.293 640.874,-273.422 640.874,-273.422"/>
<polygon style="fill:black;stroke:black;" points="664.126,-209.578 671.31,-201.293 665.563,-204.789 667,-200 667,-200 667,-200 665.563,-204.789 662.69,-198.707 664.126,-209.578 664.126,-209.578"/>
</g>
<!-- ResearchObject -->
<g id="node6" class="node"><title>ResearchObject</title>
<ellipse style="fill:none;stroke:black;" cx="351" cy="-301" rx="84.9707" ry="18"/>
<text text-anchor="middle" x="351" y="-296.9" style="font-family:Times New Roman;font-size:14.00;">ResearchObject</text>
</g>
<!-- ResearchObject&#45;&gt;DropboxEntry -->
<g id="edge10" class="edge"><title>ResearchObject&#45;&gt;DropboxEntry</title>
<path style="fill:none;stroke:black;" d="M350,-275C348,-258 347,-237 348,-218 348,-215 348,-213 348,-210"/>
<ellipse style="fill:none;stroke:black;" cx="350" cy="-279" rx="4" ry="4"/>
<polygon style="fill:black;stroke:black;" points="348.005,-209.95 353.478,-200.448 348.502,-204.975 349,-200 349,-200 349,-200 348.502,-204.975 344.522,-199.552 348.005,-209.95 348.005,-209.95"/>
</g>
<!-- ResearchObject&#45;&gt;DropboxEntry -->
<g id="edge12" class="edge"><title>ResearchObject&#45;&gt;DropboxEntry</title>
<path style="fill:none;stroke:black;" d="M351,-275C351,-256 351,-230 350,-210"/>
<ellipse style="fill:none;stroke:black;" cx="351" cy="-279" rx="4" ry="4"/>
<polygon style="fill:black;stroke:black;" points="350,-210 354.5,-200 350,-205 350,-200 350,-200 350,-200 350,-205 345.5,-200 350,-210 350,-210"/>
<text text-anchor="middle" x="378" y="-222.9" style="font-family:Times New Roman;font-size:14.00;">children</text>
</g>
<!-- Ability -->
<g id="node8" class="node"><title>Ability</title>
<polygon style="fill:none;stroke:black;" points="743,-319 683,-319 683,-283 743,-283 743,-319"/>
<text text-anchor="middle" x="713" y="-296.9" style="font-family:Times New Roman;font-size:14.00;">Ability</text>
</g>
</g>
</svg>
