<?xml version="1.0" encoding="UTF-8" standalone="no"?>
<!DOCTYPE svg PUBLIC "-//W3C//DTD SVG 1.0//EN"
 "http://www.w3.org/TR/2001/REC-SVG-20010904/DTD/svg10.dtd" [
 <!ATTLIST svg xmlns:xlink CDATA #FIXED "http://www.w3.org/1999/xlink">
]>
<!-- Generated by Graphviz version 2.20.2 (Tue Mar &#160;2 21:46:26 UTC 2010)
     For user: (jits) Jits,,, -->
<!-- Title: models_diagram Pages: 1 -->
<svg width="772pt" height="518pt"
 viewBox="0.00 0.00 772.00 518.00" xmlns="http://www.w3.org/2000/svg" xmlns:xlink="http://www.w3.org/1999/xlink">
<g id="graph0" class="graph" transform="scale(1 1) rotate(0) translate(4 514)">
<title>models_diagram</title>
<polygon style="fill:white;stroke:white;" points="-4,4 -4,-514 768,-514 768,4 -4,4"/>
<!-- _diagram_info -->
<g id="node1" class="node"><title>_diagram_info</title>
<text text-anchor="start" x="7.5" y="-362.8" style="font-family:Times New Roman;font-size:13.00;">Models diagram</text>
<text text-anchor="start" x="7.5" y="-345.8" style="font-family:Times New Roman;font-size:13.00;">Date: Apr 01 2011 &#45; 13:29</text>
<text text-anchor="start" x="7.5" y="-328.8" style="font-family:Times New Roman;font-size:13.00;">Migration version: 20110401105537</text>
<text text-anchor="start" x="7.5" y="-311.8" style="font-family:Times New Roman;font-size:13.00;">Generated by RailRoady 1.0.2</text>
<text text-anchor="start" x="7.5" y="-294.8" style="font-family:Times New Roman;font-size:13.00;">http://railroady.prestonlee.com</text>
</g>
<!-- DropboxAccount -->
<g id="node2" class="node"><title>DropboxAccount</title>
<polyline style="fill:none;stroke:black;" points="224,-0 365,-0 "/>
<path style="fill:none;stroke:black;" d="M365,-0C371,-0 377,-6 377,-12"/>
<polyline style="fill:none;stroke:black;" points="377,-12 377,-106 "/>
<path style="fill:none;stroke:black;" d="M377,-106C377,-112 371,-118 365,-118"/>
<polyline style="fill:none;stroke:black;" points="365,-118 224,-118 "/>
<path style="fill:none;stroke:black;" d="M224,-118C218,-118 212,-112 212,-106"/>
<polyline style="fill:none;stroke:black;" points="212,-106 212,-12 "/>
<path style="fill:none;stroke:black;" d="M212,-12C212,-6 218,-0 224,-0"/>
<text text-anchor="middle" x="294" y="-100.9" style="font-family:Times New Roman;font-size:14.00;">DropboxAccount</text>
<polyline style="fill:none;stroke:black;" points="212,-93 377,-93 "/>
<text text-anchor="start" x="219.5" y="-75.9" style="font-family:Times New Roman;font-size:14.00;">access_token :string</text>
<text text-anchor="start" x="219.5" y="-58.9" style="font-family:Times New Roman;font-size:14.00;">access_secret :string</text>
<text text-anchor="start" x="219.5" y="-41.9" style="font-family:Times New Roman;font-size:14.00;">created_at :datetime</text>
<text text-anchor="start" x="219.5" y="-24.9" style="font-family:Times New Roman;font-size:14.00;">updated_at :datetime</text>
<text text-anchor="start" x="219.5" y="-7.9" style="font-family:Times New Roman;font-size:14.00;">ro_folder :string</text>
</g>
<!-- User -->
<g id="node3" class="node"><title>User</title>
<polyline style="fill:none;stroke:black;" points="278,-154 492,-154 "/>
<path style="fill:none;stroke:black;" d="M492,-154C498,-154 504,-160 504,-166"/>
<polyline style="fill:none;stroke:black;" points="504,-166 504,-498 "/>
<path style="fill:none;stroke:black;" d="M504,-498C504,-504 498,-510 492,-510"/>
<polyline style="fill:none;stroke:black;" points="492,-510 278,-510 "/>
<path style="fill:none;stroke:black;" d="M278,-510C272,-510 266,-504 266,-498"/>
<polyline style="fill:none;stroke:black;" points="266,-498 266,-166 "/>
<path style="fill:none;stroke:black;" d="M266,-166C266,-160 272,-154 278,-154"/>
<text text-anchor="middle" x="385" y="-492.9" style="font-family:Times New Roman;font-size:14.00;">User</text>
<polyline style="fill:none;stroke:black;" points="266,-485 504,-485 "/>
<text text-anchor="start" x="274" y="-467.9" style="font-family:Times New Roman;font-size:14.00;">email :string</text>
<text text-anchor="start" x="274" y="-450.9" style="font-family:Times New Roman;font-size:14.00;">encrypted_password :string</text>
<text text-anchor="start" x="274" y="-433.9" style="font-family:Times New Roman;font-size:14.00;">password_salt :string</text>
<text text-anchor="start" x="274" y="-416.9" style="font-family:Times New Roman;font-size:14.00;">reset_password_token :string</text>
<text text-anchor="start" x="274" y="-399.9" style="font-family:Times New Roman;font-size:14.00;">remember_token :string</text>
<text text-anchor="start" x="274" y="-382.9" style="font-family:Times New Roman;font-size:14.00;">remember_created_at :datetime</text>
<text text-anchor="start" x="274" y="-365.9" style="font-family:Times New Roman;font-size:14.00;">current_sign_in_at :datetime</text>
<text text-anchor="start" x="274" y="-348.9" style="font-family:Times New Roman;font-size:14.00;">last_sign_in_at :datetime</text>
<text text-anchor="start" x="274" y="-331.9" style="font-family:Times New Roman;font-size:14.00;">current_sign_in_ip :string</text>
<text text-anchor="start" x="274" y="-314.9" style="font-family:Times New Roman;font-size:14.00;">last_sign_in_ip :string</text>
<text text-anchor="start" x="274" y="-297.9" style="font-family:Times New Roman;font-size:14.00;">confirmation_token :string</text>
<text text-anchor="start" x="274" y="-280.9" style="font-family:Times New Roman;font-size:14.00;">confirmed_at :datetime</text>
<text text-anchor="start" x="274" y="-263.9" style="font-family:Times New Roman;font-size:14.00;">confirmation_sent_at :datetime</text>
<text text-anchor="start" x="274" y="-246.9" style="font-family:Times New Roman;font-size:14.00;">authentication_token :string</text>
<text text-anchor="start" x="274" y="-229.9" style="font-family:Times New Roman;font-size:14.00;">created_at :datetime</text>
<text text-anchor="start" x="274" y="-212.9" style="font-family:Times New Roman;font-size:14.00;">updated_at :datetime</text>
<text text-anchor="start" x="274" y="-195.9" style="font-family:Times New Roman;font-size:14.00;">name :string</text>
<text text-anchor="start" x="274" y="-178.9" style="font-family:Times New Roman;font-size:14.00;">cached_slug :string</text>
<text text-anchor="start" x="274" y="-161.9" style="font-family:Times New Roman;font-size:14.00;">deleted_at :datetime</text>
</g>
<!-- User&#45;&gt;DropboxAccount -->
<g id="edge4" class="edge"><title>User&#45;&gt;DropboxAccount</title>
<path style="fill:none;stroke:black;" d="M323,-146C321,-140 319,-134 317,-128"/>
<ellipse style="fill:none;stroke:black;" cx="324.595" cy="-150.255" rx="4.00001" ry="4.00001"/>
<polygon style="fill:black;stroke:black;" points="316.874,-127.578 318.31,-116.707 315.437,-122.789 314,-118 314,-118 314,-118 315.437,-122.789 309.69,-119.293 316.874,-127.578 316.874,-127.578"/>
</g>
<!-- Role -->
<g id="node6" class="node"><title>Role</title>
<polyline style="fill:none;stroke:black;" points="406,-17 547,-17 "/>
<path style="fill:none;stroke:black;" d="M547,-17C553,-17 559,-23 559,-29"/>
<polyline style="fill:none;stroke:black;" points="559,-29 559,-89 "/>
<path style="fill:none;stroke:black;" d="M559,-89C559,-95 553,-101 547,-101"/>
<polyline style="fill:none;stroke:black;" points="547,-101 406,-101 "/>
<path style="fill:none;stroke:black;" d="M406,-101C400,-101 394,-95 394,-89"/>
<polyline style="fill:none;stroke:black;" points="394,-89 394,-29 "/>
<path style="fill:none;stroke:black;" d="M394,-29C394,-23 400,-17 406,-17"/>
<text text-anchor="middle" x="476" y="-83.9" style="font-family:Times New Roman;font-size:14.00;">Role</text>
<polyline style="fill:none;stroke:black;" points="394,-76 559,-76 "/>
<text text-anchor="start" x="401.5" y="-58.9" style="font-family:Times New Roman;font-size:14.00;">name :string</text>
<text text-anchor="start" x="401.5" y="-41.9" style="font-family:Times New Roman;font-size:14.00;">created_at :datetime</text>
<text text-anchor="start" x="401.5" y="-24.9" style="font-family:Times New Roman;font-size:14.00;">updated_at :datetime</text>
</g>
<!-- User&#45;&gt;Role -->
<g id="edge2" class="edge"><title>User&#45;&gt;Role</title>
<path style="fill:none;stroke:black;" d="M448,-144C452,-133 456,-121 459,-111"/>
<polygon style="fill:black;stroke:black;" points="447.714,-144.715 439.822,-152.329 445.857,-149.358 444,-154 444,-154 444,-154 445.857,-149.358 448.178,-155.671 447.714,-144.715 447.714,-144.715"/>
<polygon style="fill:black;stroke:black;" points="459.126,-110.578 466.31,-102.293 460.563,-105.789 462,-101 462,-101 462,-101 460.563,-105.789 457.69,-99.7069 459.126,-110.578 459.126,-110.578"/>
</g>
<!-- SyncJob -->
<g id="node4" class="node"><title>SyncJob</title>
<polyline style="fill:none;stroke:black;" points="534,-273 675,-273 "/>
<path style="fill:none;stroke:black;" d="M675,-273C681,-273 687,-279 687,-285"/>
<polyline style="fill:none;stroke:black;" points="687,-285 687,-379 "/>
<path style="fill:none;stroke:black;" d="M687,-379C687,-385 681,-391 675,-391"/>
<polyline style="fill:none;stroke:black;" points="675,-391 534,-391 "/>
<path style="fill:none;stroke:black;" d="M534,-391C528,-391 522,-385 522,-379"/>
<polyline style="fill:none;stroke:black;" points="522,-379 522,-285 "/>
<path style="fill:none;stroke:black;" d="M522,-285C522,-279 528,-273 534,-273"/>
<text text-anchor="middle" x="604" y="-373.9" style="font-family:Times New Roman;font-size:14.00;">SyncJob</text>
<polyline style="fill:none;stroke:black;" points="522,-366 687,-366 "/>
<text text-anchor="start" x="529.5" y="-348.9" style="font-family:Times New Roman;font-size:14.00;">started_at :datetime</text>
<text text-anchor="start" x="529.5" y="-331.9" style="font-family:Times New Roman;font-size:14.00;">finished_at :datetime</text>
<text text-anchor="start" x="529.5" y="-314.9" style="font-family:Times New Roman;font-size:14.00;">status_code :string</text>
<text text-anchor="start" x="529.5" y="-297.9" style="font-family:Times New Roman;font-size:14.00;">created_at :datetime</text>
<text text-anchor="start" x="529.5" y="-280.9" style="font-family:Times New Roman;font-size:14.00;">updated_at :datetime</text>
</g>
<!-- Ability -->
<g id="node5" class="node"><title>Ability</title>
<polygon style="fill:none;stroke:black;" points="704,-307 704,-357 764,-357 764,-307 704,-307"/>
<text text-anchor="middle" x="734" y="-339.9" style="font-family:Times New Roman;font-size:14.00;">Ability</text>
<polyline style="fill:none;stroke:black;" points="704,-332 764,-332 "/>
<text text-anchor="middle" x="734" y="-314.9" style="font-family:Times New Roman;font-size:14.00;"> </text>
</g>
</g>
</svg>
