<?xml version="1.0" encoding="UTF-8" standalone="no"?>
<!DOCTYPE svg PUBLIC "-//W3C//DTD SVG 1.0//EN"
 "http://www.w3.org/TR/2001/REC-SVG-20010904/DTD/svg10.dtd" [
 <!ATTLIST svg xmlns:xlink CDATA #FIXED "http://www.w3.org/1999/xlink">
]>
<!-- Generated by Graphviz version 2.20.2 (Tue Mar &#160;2 21:46:26 UTC 2010)
     For user: (jits) Jits,,, -->
<!-- Title: models_diagram Pages: 1 -->
<svg width="532pt" height="174pt"
 viewBox="0.00 0.00 532.00 174.00" xmlns="http://www.w3.org/2000/svg" xmlns:xlink="http://www.w3.org/1999/xlink">
<g id="graph0" class="graph" transform="scale(1 1) rotate(0) translate(4 170)">
<title>models_diagram</title>
<polygon style="fill:white;stroke:white;" points="-4,4 -4,-170 528,-170 528,4 -4,4"/>
<!-- _diagram_info -->
<g id="node1" class="node"><title>_diagram_info</title>
<text text-anchor="start" x="7.5" y="-149.8" style="font-family:Times New Roman;font-size:13.00;">Models diagram</text>
<text text-anchor="start" x="7.5" y="-132.8" style="font-family:Times New Roman;font-size:13.00;">Date: Apr 01 2011 &#45; 13:29</text>
<text text-anchor="start" x="7.5" y="-115.8" style="font-family:Times New Roman;font-size:13.00;">Migration version: 20110401105537</text>
<text text-anchor="start" x="7.5" y="-98.8" style="font-family:Times New Roman;font-size:13.00;">Generated by RailRoady 1.0.2</text>
<text text-anchor="start" x="7.5" y="-81.8" style="font-family:Times New Roman;font-size:13.00;">http://railroady.prestonlee.com</text>
</g>
<!-- DropboxAccount -->
<g id="node2" class="node"><title>DropboxAccount</title>
<ellipse style="fill:none;stroke:black;" cx="230" cy="-18" rx="89.139" ry="18"/>
<text text-anchor="middle" x="230" y="-13.9" style="font-family:Times New Roman;font-size:14.00;">DropboxAccount</text>
</g>
<!-- User -->
<g id="node3" class="node"><title>User</title>
<ellipse style="fill:none;stroke:black;" cx="299" cy="-119" rx="32.8565" ry="18"/>
<text text-anchor="middle" x="299" y="-114.9" style="font-family:Times New Roman;font-size:14.00;">User</text>
</g>
<!-- User&#45;&gt;DropboxAccount -->
<g id="edge4" class="edge"><title>User&#45;&gt;DropboxAccount</title>
<path style="fill:none;stroke:black;" d="M282,-95C272,-80 258,-60 248,-44"/>
<ellipse style="fill:none;stroke:black;" cx="284.675" cy="-98.7451" rx="4.00002" ry="4.00002"/>
<polygon style="fill:black;stroke:black;" points="248,-44 245.6,-33.3 245,-40 242,-36 242,-36 242,-36 245,-40 238.4,-38.7 248,-44 248,-44"/>
</g>
<!-- Role -->
<g id="node6" class="node"><title>Role</title>
<ellipse style="fill:none;stroke:black;" cx="368" cy="-18" rx="30.7734" ry="18"/>
<text text-anchor="middle" x="368" y="-13.9" style="font-family:Times New Roman;font-size:14.00;">Role</text>
</g>
<!-- User&#45;&gt;Role -->
<g id="edge2" class="edge"><title>User&#45;&gt;Role</title>
<path style="fill:none;stroke:black;" d="M317,-93C327,-78 340,-58 350,-44"/>
<polygon style="fill:black;stroke:black;" points="316.547,-93.6795 307.256,-99.5038 313.774,-97.8397 311,-102 311,-102 311,-102 313.774,-97.8397 314.744,-104.496 316.547,-93.6795 316.547,-93.6795"/>
<polygon style="fill:black;stroke:black;" points="350.453,-43.3205 359.744,-37.4962 353.226,-39.1603 356,-35 356,-35 356,-35 353.226,-39.1603 352.256,-32.5038 350.453,-43.3205 350.453,-43.3205"/>
</g>
<!-- SyncJob -->
<g id="node4" class="node"><title>SyncJob</title>
<ellipse style="fill:none;stroke:black;" cx="398" cy="-119" rx="48.1403" ry="18"/>
<text text-anchor="middle" x="398" y="-114.9" style="font-family:Times New Roman;font-size:14.00;">SyncJob</text>
</g>
<!-- Ability -->
<g id="node5" class="node"><title>Ability</title>
<polygon style="fill:none;stroke:black;" points="524,-137 464,-137 464,-101 524,-101 524,-137"/>
<text text-anchor="middle" x="494" y="-114.9" style="font-family:Times New Roman;font-size:14.00;">Ability</text>
</g>
</g>
</svg>
