<?xml version="1.0" encoding="UTF-8" standalone="no"?>
<!DOCTYPE svg PUBLIC "-//W3C//DTD SVG 1.0//EN"
 "http://www.w3.org/TR/2001/REC-SVG-20010904/DTD/svg10.dtd" [
 <!ATTLIST svg xmlns:xlink CDATA #FIXED "http://www.w3.org/1999/xlink">
]>
<!-- Generated by Graphviz version 2.20.2 (Tue Mar &#160;2 21:46:26 UTC 2010)
     For user: (jits) Jits,,, -->
<!-- Title: models_diagram Pages: 1 -->
<svg width="590pt" height="1040pt"
 viewBox="0.00 0.00 590.00 1040.00" xmlns="http://www.w3.org/2000/svg" xmlns:xlink="http://www.w3.org/1999/xlink">
<g id="graph0" class="graph" transform="scale(1 1) rotate(0) translate(4 1036)">
<title>models_diagram</title>
<polygon style="fill:white;stroke:white;" points="-4,4 -4,-1036 586,-1036 586,4 -4,4"/>
<!-- _diagram_info -->
<g id="node1" class="node"><title>_diagram_info</title>
<text text-anchor="start" x="7.5" y="-884.8" style="font-family:Times New Roman;font-size:13.00;">Models diagram</text>
<text text-anchor="start" x="7.5" y="-867.8" style="font-family:Times New Roman;font-size:13.00;">Date: Apr 07 2011 &#45; 10:01</text>
<text text-anchor="start" x="7.5" y="-850.8" style="font-family:Times New Roman;font-size:13.00;">Migration version: 20110406150131</text>
<text text-anchor="start" x="7.5" y="-833.8" style="font-family:Times New Roman;font-size:13.00;">Generated by RailRoady 1.0.2</text>
<text text-anchor="start" x="7.5" y="-816.8" style="font-family:Times New Roman;font-size:13.00;">http://railroady.prestonlee.com</text>
</g>
<!-- DropboxEntry -->
<g id="node2" class="node"><title>DropboxEntry</title>
<polyline style="fill:none;stroke:black;" points="40,-0 196,-0 "/>
<path style="fill:none;stroke:black;" d="M196,-0C202,-0 208,-6 208,-12"/>
<polyline style="fill:none;stroke:black;" points="208,-12 208,-123 "/>
<path style="fill:none;stroke:black;" d="M208,-123C208,-129 202,-135 196,-135"/>
<polyline style="fill:none;stroke:black;" points="196,-135 40,-135 "/>
<path style="fill:none;stroke:black;" d="M40,-135C34,-135 28,-129 28,-123"/>
<polyline style="fill:none;stroke:black;" points="28,-123 28,-12 "/>
<path style="fill:none;stroke:black;" d="M28,-12C28,-6 34,-0 40,-0"/>
<text text-anchor="middle" x="118" y="-117.9" style="font-family:Times New Roman;font-size:14.00;">DropboxEntry</text>
<polyline style="fill:none;stroke:black;" points="28,-110 208,-110 "/>
<text text-anchor="start" x="36" y="-93.4" style="font-family:Times New Roman;font-size:14.00;">path :string</text>
<text text-anchor="start" x="36" y="-76.4" style="font-family:Times New Roman;font-size:14.00;">entry_type_code :string</text>
<text text-anchor="start" x="36" y="-59.4" style="font-family:Times New Roman;font-size:14.00;">hash :string</text>
<text text-anchor="start" x="36" y="-42.4" style="font-family:Times New Roman;font-size:14.00;">revision :integer</text>
<text text-anchor="start" x="36" y="-25.4" style="font-family:Times New Roman;font-size:14.00;">created_at :datetime</text>
<text text-anchor="start" x="36" y="-8.4" style="font-family:Times New Roman;font-size:14.00;">updated_at :datetime</text>
</g>
<!-- DropboxEntry&#45;&gt;DropboxEntry -->
<g id="edge2" class="edge"><title>DropboxEntry&#45;&gt;DropboxEntry</title>
<path style="fill:none;stroke:black;" d="M216,-80C222,-77 226,-73 226,-68 226,-63 223,-59 217,-57"/>
<ellipse style="fill:none;stroke:black;" cx="211.745" cy="-81.5955" rx="4.00001" ry="4.00001"/>
<polygon style="fill:black;stroke:black;" points="217.138,-57.0614 209.828,-48.8878 212.569,-55.0307 208,-53 208,-53 208,-53 212.569,-55.0307 206.172,-57.1122 217.138,-57.0614 217.138,-57.0614"/>
<text text-anchor="middle" x="253" y="-63.9" style="font-family:Times New Roman;font-size:14.00;">children</text>
</g>
<!-- DropboxResearchObjectContainer -->
<g id="node3" class="node"><title>DropboxResearchObjectContainer</title>
<polyline style="fill:none;stroke:black;" points="143,-380 368,-380 "/>
<path style="fill:none;stroke:black;" d="M368,-380C374,-380 380,-386 380,-392"/>
<polyline style="fill:none;stroke:black;" points="380,-392 380,-469 "/>
<path style="fill:none;stroke:black;" d="M380,-469C380,-475 374,-481 368,-481"/>
<polyline style="fill:none;stroke:black;" points="368,-481 143,-481 "/>
<path style="fill:none;stroke:black;" d="M143,-481C137,-481 131,-475 131,-469"/>
<polyline style="fill:none;stroke:black;" points="131,-469 131,-392 "/>
<path style="fill:none;stroke:black;" d="M131,-392C131,-386 137,-380 143,-380"/>
<text text-anchor="middle" x="255" y="-463.9" style="font-family:Times New Roman;font-size:14.00;">DropboxResearchObjectContainer</text>
<polyline style="fill:none;stroke:black;" points="131,-456 380,-456 "/>
<text text-anchor="start" x="138.5" y="-439.4" style="font-family:Times New Roman;font-size:14.00;">path :string</text>
<text text-anchor="start" x="138.5" y="-422.4" style="font-family:Times New Roman;font-size:14.00;">workspace_password :string</text>
<text text-anchor="start" x="138.5" y="-405.4" style="font-family:Times New Roman;font-size:14.00;">created_at :datetime</text>
<text text-anchor="start" x="138.5" y="-388.4" style="font-family:Times New Roman;font-size:14.00;">updated_at :datetime</text>
</g>
<!-- ResearchObject -->
<g id="node6" class="node"><title>ResearchObject</title>
<polyline style="fill:none;stroke:black;" points="48,-215 189,-215 "/>
<path style="fill:none;stroke:black;" d="M189,-215C195,-215 201,-221 201,-227"/>
<polyline style="fill:none;stroke:black;" points="201,-227 201,-304 "/>
<path style="fill:none;stroke:black;" d="M201,-304C201,-310 195,-316 189,-316"/>
<polyline style="fill:none;stroke:black;" points="189,-316 48,-316 "/>
<path style="fill:none;stroke:black;" d="M48,-316C42,-316 36,-310 36,-304"/>
<polyline style="fill:none;stroke:black;" points="36,-304 36,-227 "/>
<path style="fill:none;stroke:black;" d="M36,-227C36,-221 42,-215 48,-215"/>
<text text-anchor="middle" x="118" y="-298.9" style="font-family:Times New Roman;font-size:14.00;">ResearchObject</text>
<polyline style="fill:none;stroke:black;" points="36,-291 201,-291 "/>
<text text-anchor="start" x="43.5" y="-274.4" style="font-family:Times New Roman;font-size:14.00;">name :string</text>
<text text-anchor="start" x="43.5" y="-257.4" style="font-family:Times New Roman;font-size:14.00;">created_at :datetime</text>
<text text-anchor="start" x="43.5" y="-240.4" style="font-family:Times New Roman;font-size:14.00;">updated_at :datetime</text>
<text text-anchor="start" x="43.5" y="-223.4" style="font-family:Times New Roman;font-size:14.00;">path :string</text>
</g>
<!-- DropboxResearchObjectContainer&#45;&gt;ResearchObject -->
<g id="edge6" class="edge"><title>DropboxResearchObjectContainer&#45;&gt;ResearchObject</title>
<path style="fill:none;stroke:black;" d="M207,-374C193,-358 179,-340 165,-324"/>
<ellipse style="fill:none;stroke:black;" cx="209.439" cy="-376.927" rx="4.00002" ry="4.00002"/>
<polygon style="fill:black;stroke:black;" points="165,-324 162.6,-313.3 162,-320 159,-316 159,-316 159,-316 162,-320 155.4,-318.7 165,-324 165,-324"/>
</g>
<!-- SyncJob -->
<g id="node7" class="node"><title>SyncJob</title>
<polyline style="fill:none;stroke:black;" points="230,-190 372,-190 "/>
<path style="fill:none;stroke:black;" d="M372,-190C378,-190 384,-196 384,-202"/>
<polyline style="fill:none;stroke:black;" points="384,-202 384,-330 "/>
<path style="fill:none;stroke:black;" d="M384,-330C384,-336 378,-342 372,-342"/>
<polyline style="fill:none;stroke:black;" points="372,-342 230,-342 "/>
<path style="fill:none;stroke:black;" d="M230,-342C224,-342 218,-336 218,-330"/>
<polyline style="fill:none;stroke:black;" points="218,-330 218,-202 "/>
<path style="fill:none;stroke:black;" d="M218,-202C218,-196 224,-190 230,-190"/>
<text text-anchor="middle" x="301" y="-324.9" style="font-family:Times New Roman;font-size:14.00;">SyncJob</text>
<polyline style="fill:none;stroke:black;" points="218,-317 384,-317 "/>
<text text-anchor="start" x="226" y="-299.9" style="font-family:Times New Roman;font-size:14.00;">started_at :datetime</text>
<text text-anchor="start" x="226" y="-282.9" style="font-family:Times New Roman;font-size:14.00;">finished_at :datetime</text>
<text text-anchor="start" x="226" y="-265.9" style="font-family:Times New Roman;font-size:14.00;">status_code :string</text>
<text text-anchor="start" x="226" y="-248.9" style="font-family:Times New Roman;font-size:14.00;">created_at :datetime</text>
<text text-anchor="start" x="226" y="-231.9" style="font-family:Times New Roman;font-size:14.00;">updated_at :datetime</text>
<text text-anchor="start" x="226" y="-214.9" style="font-family:Times New Roman;font-size:14.00;">error_message :string</text>
<text text-anchor="start" x="226" y="-197.9" style="font-family:Times New Roman;font-size:14.00;">stats :text</text>
</g>
<!-- DropboxResearchObjectContainer&#45;&gt;SyncJob -->
<g id="edge4" class="edge"><title>DropboxResearchObjectContainer&#45;&gt;SyncJob</title>
<path style="fill:none;stroke:black;" d="M271,-372C273,-365 275,-359 277,-352"/>
<ellipse style="fill:none;stroke:black;" cx="269.97" cy="-376.119" rx="4.00001" ry="4.00001"/>
<polygon style="fill:black;stroke:black;" points="277.126,-351.578 284.31,-343.293 278.563,-346.789 280,-342 280,-342 280,-342 278.563,-346.789 275.69,-340.707 277.126,-351.578 277.126,-351.578"/>
</g>
<!-- DropboxAccount -->
<g id="node4" class="node"><title>DropboxAccount</title>
<polyline style="fill:none;stroke:black;" points="185,-536 326,-536 "/>
<path style="fill:none;stroke:black;" d="M326,-536C332,-536 338,-542 338,-548"/>
<polyline style="fill:none;stroke:black;" points="338,-548 338,-625 "/>
<path style="fill:none;stroke:black;" d="M338,-625C338,-631 332,-637 326,-637"/>
<polyline style="fill:none;stroke:black;" points="326,-637 185,-637 "/>
<path style="fill:none;stroke:black;" d="M185,-637C179,-637 173,-631 173,-625"/>
<polyline style="fill:none;stroke:black;" points="173,-625 173,-548 "/>
<path style="fill:none;stroke:black;" d="M173,-548C173,-542 179,-536 185,-536"/>
<text text-anchor="middle" x="255" y="-619.9" style="font-family:Times New Roman;font-size:14.00;">DropboxAccount</text>
<polyline style="fill:none;stroke:black;" points="173,-612 338,-612 "/>
<text text-anchor="start" x="180.5" y="-595.4" style="font-family:Times New Roman;font-size:14.00;">access_token :string</text>
<text text-anchor="start" x="180.5" y="-578.4" style="font-family:Times New Roman;font-size:14.00;">access_secret :string</text>
<text text-anchor="start" x="180.5" y="-561.4" style="font-family:Times New Roman;font-size:14.00;">created_at :datetime</text>
<text text-anchor="start" x="180.5" y="-544.4" style="font-family:Times New Roman;font-size:14.00;">updated_at :datetime</text>
</g>
<!-- DropboxAccount&#45;&gt;DropboxResearchObjectContainer -->
<g id="edge8" class="edge"><title>DropboxAccount&#45;&gt;DropboxResearchObjectContainer</title>
<path style="fill:none;stroke:black;" d="M255,-528C255,-516 255,-503 255,-491"/>
<ellipse style="fill:none;stroke:black;" cx="255" cy="-532" rx="4" ry="4"/>
<polygon style="fill:black;stroke:black;" points="255,-491 259.5,-481 255,-486 255,-481 255,-481 255,-481 255,-486 250.5,-481 255,-491 255,-491"/>
<text text-anchor="middle" x="302" y="-504.9" style="font-family:Times New Roman;font-size:14.00;">ro_containers</text>
</g>
<!-- User -->
<g id="node5" class="node"><title>User</title>
<polyline style="fill:none;stroke:black;" points="278,-676 492,-676 "/>
<path style="fill:none;stroke:black;" d="M492,-676C498,-676 504,-682 504,-688"/>
<polyline style="fill:none;stroke:black;" points="504,-688 504,-1020 "/>
<path style="fill:none;stroke:black;" d="M504,-1020C504,-1026 498,-1032 492,-1032"/>
<polyline style="fill:none;stroke:black;" points="492,-1032 278,-1032 "/>
<path style="fill:none;stroke:black;" d="M278,-1032C272,-1032 266,-1026 266,-1020"/>
<polyline style="fill:none;stroke:black;" points="266,-1020 266,-688 "/>
<path style="fill:none;stroke:black;" d="M266,-688C266,-682 272,-676 278,-676"/>
<text text-anchor="middle" x="385" y="-1014.9" style="font-family:Times New Roman;font-size:14.00;">User</text>
<polyline style="fill:none;stroke:black;" points="266,-1007 504,-1007 "/>
<text text-anchor="start" x="274" y="-989.9" style="font-family:Times New Roman;font-size:14.00;">email :string</text>
<text text-anchor="start" x="274" y="-972.9" style="font-family:Times New Roman;font-size:14.00;">encrypted_password :string</text>
<text text-anchor="start" x="274" y="-955.9" style="font-family:Times New Roman;font-size:14.00;">password_salt :string</text>
<text text-anchor="start" x="274" y="-938.9" style="font-family:Times New Roman;font-size:14.00;">reset_password_token :string</text>
<text text-anchor="start" x="274" y="-921.9" style="font-family:Times New Roman;font-size:14.00;">remember_token :string</text>
<text text-anchor="start" x="274" y="-904.9" style="font-family:Times New Roman;font-size:14.00;">remember_created_at :datetime</text>
<text text-anchor="start" x="274" y="-887.9" style="font-family:Times New Roman;font-size:14.00;">current_sign_in_at :datetime</text>
<text text-anchor="start" x="274" y="-870.9" style="font-family:Times New Roman;font-size:14.00;">last_sign_in_at :datetime</text>
<text text-anchor="start" x="274" y="-853.9" style="font-family:Times New Roman;font-size:14.00;">current_sign_in_ip :string</text>
<text text-anchor="start" x="274" y="-836.9" style="font-family:Times New Roman;font-size:14.00;">last_sign_in_ip :string</text>
<text text-anchor="start" x="274" y="-819.9" style="font-family:Times New Roman;font-size:14.00;">confirmation_token :string</text>
<text text-anchor="start" x="274" y="-802.9" style="font-family:Times New Roman;font-size:14.00;">confirmed_at :datetime</text>
<text text-anchor="start" x="274" y="-785.9" style="font-family:Times New Roman;font-size:14.00;">confirmation_sent_at :datetime</text>
<text text-anchor="start" x="274" y="-768.9" style="font-family:Times New Roman;font-size:14.00;">authentication_token :string</text>
<text text-anchor="start" x="274" y="-751.9" style="font-family:Times New Roman;font-size:14.00;">created_at :datetime</text>
<text text-anchor="start" x="274" y="-734.9" style="font-family:Times New Roman;font-size:14.00;">updated_at :datetime</text>
<text text-anchor="start" x="274" y="-717.9" style="font-family:Times New Roman;font-size:14.00;">name :string</text>
<text text-anchor="start" x="274" y="-700.9" style="font-family:Times New Roman;font-size:14.00;">cached_slug :string</text>
<text text-anchor="start" x="274" y="-683.9" style="font-family:Times New Roman;font-size:14.00;">deleted_at :datetime</text>
</g>
<!-- User&#45;&gt;DropboxAccount -->
<g id="edge12" class="edge"><title>User&#45;&gt;DropboxAccount</title>
<path style="fill:none;stroke:black;" d="M294,-669C290,-661 287,-653 283,-646"/>
<ellipse style="fill:none;stroke:black;" cx="296.015" cy="-672.527" rx="4.00002" ry="4.00002"/>
<polygon style="fill:black;stroke:black;" points="283.061,-646.138 283.112,-635.172 281.031,-641.569 279,-637 279,-637 279,-637 281.031,-641.569 274.888,-638.828 283.061,-646.138 283.061,-646.138"/>
</g>
<!-- Role -->
<g id="node9" class="node"><title>Role</title>
<polyline style="fill:none;stroke:black;" points="367,-545 508,-545 "/>
<path style="fill:none;stroke:black;" d="M508,-545C514,-545 520,-551 520,-557"/>
<polyline style="fill:none;stroke:black;" points="520,-557 520,-617 "/>
<path style="fill:none;stroke:black;" d="M520,-617C520,-623 514,-629 508,-629"/>
<polyline style="fill:none;stroke:black;" points="508,-629 367,-629 "/>
<path style="fill:none;stroke:black;" d="M367,-629C361,-629 355,-623 355,-617"/>
<polyline style="fill:none;stroke:black;" points="355,-617 355,-557 "/>
<path style="fill:none;stroke:black;" d="M355,-557C355,-551 361,-545 367,-545"/>
<text text-anchor="middle" x="437" y="-611.9" style="font-family:Times New Roman;font-size:14.00;">Role</text>
<polyline style="fill:none;stroke:black;" points="355,-604 520,-604 "/>
<text text-anchor="start" x="362.5" y="-586.9" style="font-family:Times New Roman;font-size:14.00;">name :string</text>
<text text-anchor="start" x="362.5" y="-569.9" style="font-family:Times New Roman;font-size:14.00;">created_at :datetime</text>
<text text-anchor="start" x="362.5" y="-552.9" style="font-family:Times New Roman;font-size:14.00;">updated_at :datetime</text>
</g>
<!-- User&#45;&gt;Role -->
<g id="edge10" class="edge"><title>User&#45;&gt;Role</title>
<path style="fill:none;stroke:black;" d="M422,-666C423,-657 425,-648 427,-639"/>
<polygon style="fill:black;stroke:black;" points="421.961,-666.194 415.587,-675.117 420.981,-671.097 420,-676 420,-676 420,-676 420.981,-671.097 424.413,-676.883 421.961,-666.194 421.961,-666.194"/>
<polygon style="fill:black;stroke:black;" points="427.039,-638.806 433.413,-629.883 428.019,-633.903 429,-629 429,-629 429,-629 428.019,-633.903 424.587,-628.117 427.039,-638.806 427.039,-638.806"/>
</g>
<!-- ResearchObject&#45;&gt;DropboxEntry -->
<g id="edge14" class="edge"><title>ResearchObject&#45;&gt;DropboxEntry</title>
<path style="fill:none;stroke:black;" d="M117,-207C116,-190 116,-171 116,-154 116,-151 116,-148 116,-145"/>
<ellipse style="fill:none;stroke:black;" cx="117" cy="-211" rx="4" ry="4"/>
<polygon style="fill:black;stroke:black;" points="116,-145 120.5,-135 116,-140 116,-135 116,-135 116,-135 116,-140 111.5,-135 116,-145 116,-145"/>
</g>
<!-- ResearchObject&#45;&gt;DropboxEntry -->
<g id="edge16" class="edge"><title>ResearchObject&#45;&gt;DropboxEntry</title>
<path style="fill:none;stroke:black;" d="M118,-207C118,-187 118,-165 118,-145"/>
<ellipse style="fill:none;stroke:black;" cx="118" cy="-211" rx="4" ry="4"/>
<polygon style="fill:black;stroke:black;" points="118,-145 122.5,-135 118,-140 118,-135 118,-135 118,-135 118,-140 113.5,-135 118,-145 118,-145"/>
<text text-anchor="middle" x="146" y="-158.9" style="font-family:Times New Roman;font-size:14.00;">children</text>
</g>
<!-- Ability -->
<g id="node8" class="node"><title>Ability</title>
<polygon style="fill:none;stroke:black;" points="522,-829 522,-879 582,-879 582,-829 522,-829"/>
<text text-anchor="middle" x="552" y="-861.9" style="font-family:Times New Roman;font-size:14.00;">Ability</text>
<polyline style="fill:none;stroke:black;" points="522,-854 582,-854 "/>
<text text-anchor="middle" x="552" y="-836.9" style="font-family:Times New Roman;font-size:14.00;"> </text>
</g>
</g>
</svg>
