<?xml version="1.0" encoding="UTF-8" standalone="no"?>
<!DOCTYPE svg PUBLIC "-//W3C//DTD SVG 1.0//EN"
 "http://www.w3.org/TR/2001/REC-SVG-20010904/DTD/svg10.dtd" [
 <!ATTLIST svg xmlns:xlink CDATA #FIXED "http://www.w3.org/1999/xlink">
]>
<!-- Generated by Graphviz version 2.20.2 (Tue Mar &#160;2 21:46:26 UTC 2010)
     For user: (jits) Jits,,, -->
<!-- Title: models_diagram Pages: 1 -->
<svg width="1084pt" height="192pt"
 viewBox="0.00 0.00 1084.00 192.00" xmlns="http://www.w3.org/2000/svg" xmlns:xlink="http://www.w3.org/1999/xlink">
<g id="graph0" class="graph" transform="scale(1 1) rotate(0) translate(4 188)">
<title>models_diagram</title>
<polygon style="fill:white;stroke:white;" points="-4,4 -4,-188 1080,-188 1080,4 -4,4"/>
<!-- _diagram_info -->
<g id="node1" class="node"><title>_diagram_info</title>
<text text-anchor="start" x="7.5" y="-167.8" style="font-family:Times New Roman;font-size:13.00;">Models diagram</text>
<text text-anchor="start" x="7.5" y="-150.8" style="font-family:Times New Roman;font-size:13.00;">Date: Apr 05 2011 &#45; 10:48</text>
<text text-anchor="start" x="7.5" y="-133.8" style="font-family:Times New Roman;font-size:13.00;">Migration version: 20110405093135</text>
<text text-anchor="start" x="7.5" y="-116.8" style="font-family:Times New Roman;font-size:13.00;">Generated by RailRoady 1.0.2</text>
<text text-anchor="start" x="7.5" y="-99.8" style="font-family:Times New Roman;font-size:13.00;">http://railroady.prestonlee.com</text>
</g>
<!-- DropboxEntry -->
<g id="node2" class="node"><title>DropboxEntry</title>
<ellipse style="fill:none;stroke:black;" cx="351" cy="-18" rx="77.8268" ry="18"/>
<text text-anchor="middle" x="351" y="-13.9" style="font-family:Times New Roman;font-size:14.00;">DropboxEntry</text>
</g>
<!-- DropboxResearchObjectContainer -->
<g id="node3" class="node"><title>DropboxResearchObjectContainer</title>
<ellipse style="fill:none;stroke:black;" cx="627" cy="-137" rx="173.026" ry="18"/>
<text text-anchor="middle" x="627" y="-132.9" style="font-family:Times New Roman;font-size:14.00;">DropboxResearchObjectContainer</text>
</g>
<!-- DropboxAccount -->
<g id="node4" class="node"><title>DropboxAccount</title>
<ellipse style="fill:none;stroke:black;" cx="782" cy="-18" rx="89.139" ry="18"/>
<text text-anchor="middle" x="782" y="-13.9" style="font-family:Times New Roman;font-size:14.00;">DropboxAccount</text>
</g>
<!-- User -->
<g id="node5" class="node"><title>User</title>
<ellipse style="fill:none;stroke:black;" cx="851" cy="-137" rx="32.8565" ry="18"/>
<text text-anchor="middle" x="851" y="-132.9" style="font-family:Times New Roman;font-size:14.00;">User</text>
</g>
<!-- User&#45;&gt;DropboxAccount -->
<g id="edge4" class="edge"><title>User&#45;&gt;DropboxAccount</title>
<path style="fill:none;stroke:black;" d="M837,-113C826,-94 810,-66 798,-45"/>
<ellipse style="fill:none;stroke:black;" cx="839.015" cy="-116.527" rx="4.00002" ry="4.00002"/>
<polygon style="fill:black;stroke:black;" points="797.856,-44.7416 796.934,-33.8146 795.428,-40.3708 793,-36 793,-36 793,-36 795.428,-40.3708 789.066,-38.1854 797.856,-44.7416 797.856,-44.7416"/>
</g>
<!-- Role -->
<g id="node9" class="node"><title>Role</title>
<ellipse style="fill:none;stroke:black;" cx="920" cy="-18" rx="30.7734" ry="18"/>
<text text-anchor="middle" x="920" y="-13.9" style="font-family:Times New Roman;font-size:14.00;">Role</text>
</g>
<!-- User&#45;&gt;Role -->
<g id="edge2" class="edge"><title>User&#45;&gt;Role</title>
<path style="fill:none;stroke:black;" d="M866,-111C877,-91 894,-64 905,-44"/>
<polygon style="fill:black;stroke:black;" points="865.856,-111.258 857.066,-117.815 863.428,-115.629 861,-120 861,-120 861,-120 863.428,-115.629 864.934,-122.185 865.856,-111.258 865.856,-111.258"/>
<polygon style="fill:black;stroke:black;" points="905.144,-43.7416 913.934,-37.1854 907.572,-39.3708 910,-35 910,-35 910,-35 907.572,-39.3708 906.066,-32.8146 905.144,-43.7416 905.144,-43.7416"/>
</g>
<!-- ResearchObject -->
<g id="node6" class="node"><title>ResearchObject</title>
<ellipse style="fill:none;stroke:black;" cx="351" cy="-137" rx="84.9707" ry="18"/>
<text text-anchor="middle" x="351" y="-132.9" style="font-family:Times New Roman;font-size:14.00;">ResearchObject</text>
</g>
<!-- ResearchObject&#45;&gt;DropboxEntry -->
<g id="edge6" class="edge"><title>ResearchObject&#45;&gt;DropboxEntry</title>
<path style="fill:none;stroke:black;" d="M350,-111C348,-94 347,-73 348,-54 348,-51 348,-49 348,-46"/>
<ellipse style="fill:none;stroke:black;" cx="350" cy="-115" rx="4" ry="4"/>
<polygon style="fill:black;stroke:black;" points="348.005,-45.9504 353.478,-36.4478 348.502,-40.9752 349,-36 349,-36 349,-36 348.502,-40.9752 344.522,-35.5522 348.005,-45.9504 348.005,-45.9504"/>
</g>
<!-- ResearchObject&#45;&gt;DropboxEntry -->
<g id="edge8" class="edge"><title>ResearchObject&#45;&gt;DropboxEntry</title>
<path style="fill:none;stroke:black;" d="M351,-111C351,-92 351,-66 351,-46"/>
<ellipse style="fill:none;stroke:black;" cx="351" cy="-115" rx="4" ry="4"/>
<polygon style="fill:black;stroke:black;" points="351,-46 355.5,-36 351,-41 351,-36 351,-36 351,-36 351,-41 346.5,-36 351,-46 351,-46"/>
<text text-anchor="middle" x="379" y="-58.9" style="font-family:Times New Roman;font-size:14.00;">children</text>
</g>
<!-- SyncJob -->
<g id="node7" class="node"><title>SyncJob</title>
<ellipse style="fill:none;stroke:black;" cx="950" cy="-137" rx="48.1403" ry="18"/>
<text text-anchor="middle" x="950" y="-132.9" style="font-family:Times New Roman;font-size:14.00;">SyncJob</text>
</g>
<!-- Ability -->
<g id="node8" class="node"><title>Ability</title>
<polygon style="fill:none;stroke:black;" points="1076,-155 1016,-155 1016,-119 1076,-119 1076,-155"/>
<text text-anchor="middle" x="1046" y="-132.9" style="font-family:Times New Roman;font-size:14.00;">Ability</text>
</g>
</g>
</svg>
